<?xml version="1.0" standalone="no"?><!DOCTYPE svg PUBLIC "-//W3C//DTD SVG 1.1//EN" "http://www.w3.org/Graphics/SVG/1.1/DTD/svg11.dtd"><svg t="1533170206805" class="icon" style="" viewBox="0 0 1024 1024" version="1.1" xmlns="http://www.w3.org/2000/svg" p-id="3313" data-spm-anchor-id="a313x.7781069.0.i3" xmlns:xlink="http://www.w3.org/1999/xlink" width="200" height="200"><defs><style type="text/css"></style></defs><path d="M908.070788 322.438465c15.01996-26.459798 23.625697-57.080242 23.625697-89.716364C931.697778 132.746343 851.176727 51.717172 751.824162 51.717172c-57.914182 0-109.419313 27.544566-142.303677 70.312081 123.545859 25.677576 229.722505 99.167677 298.586505 200.409212L908.070788 322.438465 908.070788 322.438465zM414.510545 122.029253C381.626182 79.261737 330.091313 51.717172 272.177131 51.717172 172.823273 51.717172 92.303515 132.746343 92.303515 232.722101c0 32.636121 8.600566 63.282424 23.625697 89.716364C184.78804 221.196929 290.940121 147.706828 414.510545 122.029253L414.510545 122.029253zM512 177.630384C291.798626 177.630384 113.287758 356.151596 113.287758 576.363313c0 220.210424 178.510869 398.731636 398.712242 398.731636 220.202667 0 398.712242-178.519919 398.712242-398.731636C910.712242 356.151596 732.202667 177.630384 512 177.630384zM700.864646 625.136485l-226.257455-0.03103L474.607192 324.827798l58.378343 0.055596 0 237.005576 167.879111 0L700.864646 625.136485zM532.985535 561.88897" fill="#e6e6e6" p-id="3314" data-spm-anchor-id="a313x.7781069.0.i2" class="selected"></path></svg>