<?xml version="1.0" standalone="no"?><!DOCTYPE svg PUBLIC "-//W3C//DTD SVG 1.1//EN" "http://www.w3.org/Graphics/SVG/1.1/DTD/svg11.dtd"><svg t="1533208150854" class="icon" style="" viewBox="0 0 1024 1024" version="1.1" xmlns="http://www.w3.org/2000/svg" p-id="55787" xmlns:xlink="http://www.w3.org/1999/xlink" width="64" height="64"><defs><style type="text/css"></style></defs><path d="M857.069595 204.736964c-62.886259-59.107189-150.922315-37.883819-209.581296 15.60235C512.399601 95.635127 368.457258 88.090291 194.010157 194.305381c-33.32192 21.251-51.064003 38.521339-51.806923 39.245839l-9.139148 8.996908 11.193947 6.279007c0.434905 0.243547 43.459814 24.89704 48.834218 74.251098 2.431376 67.802222-129.120776 145.538701-129.120776 145.538701l70.64599 32.639375c-9.759271 42.957371-25.112957 112.906489 13.450337 181.282786 11.863189 15.192004 29.730115 26.231431 49.216935 27.567869 15.738449 1.077541 32.335453 1.223874 46.495964 1.223874 6.011924 0 12.088316-0.028653 18.192338-0.059352 6.131651-0.029676 12.289907-0.062422 18.444071-0.062422 134.496204 0 142.361335 29.731138 150.010549 51.073212 29.267581 81.645508 36.338626 130.182968 36.408211 130.659829l1.159406 8.28264 200.37768 0 42.799782 0c-20.810978-50.988278-125.768425-180.829462-62.616106-256.689197 43.717687-56.394405 72.953545-128.826064 80.207763-198.72504 3.917216-37.71088 1.449002-73.503061-7.317663-106.383936-7.585769-28.432563-23.246447-57.95597-39.825031-80.605829 24.016996-17.092283 81.748862-56.594973 124.507712-20.12434 84.472903 72.048943-103.756085 335.175759-122.325 430.110945-48.752354 221.688032 218.542388 193.074344 277.022291 63.534012-22.240537 31.798217-222.967164 39.051411-167.899988-115.077945 28.175713-78.863139 66.248843-154.233734 82.378196-208.778001C908.046616 297.759591 897.145335 242.415099 857.069595 204.736964L857.069595 204.736964zM857.069595 204.736964" p-id="55788" fill="#ea4053"></path></svg>