<?xml version="1.0" standalone="no"?><!DOCTYPE svg PUBLIC "-//W3C//DTD SVG 1.1//EN" "http://www.w3.org/Graphics/SVG/1.1/DTD/svg11.dtd"><svg t="1533276982300" class="icon" style="" viewBox="0 0 6144 1024" version="1.1" xmlns="http://www.w3.org/2000/svg" p-id="23989" xmlns:xlink="http://www.w3.org/1999/xlink" width="384" height="64"><defs><style type="text/css"></style></defs><path d="M1083.533 455.479L900.784 614.022c-11.506 11.355-16.757 27.714-14.04 43.748l43.151 254.663c3.376 20.18 0.006 34.641-16.34 46.695a52.745 52.745 0 0 1-31.253 10.278 52.543 52.543 0 0 1-24.716-6.188L626.84 837.317a48.29 48.29 0 0 0-45.433 0L360.347 963.22c-17.913 9.551-39.598 7.937-55.996-4.09-16.345-12.054-29.399-26.49-25.97-46.695l52.862-259.948c2.716-16.033-2.534-32.394-14.04-43.748L124.744 455.482c-14.537-14.288-19.719-35.677-13.5-55.156 6.27-19.48 22.882-33.658 42.92-36.619L404.5 319.231c15.896-2.34 29.637-12.446 36.748-27.027L556.501 45.976c8.93-18.376 27.4-30 47.653-30s38.667 11.623 47.651 30l110.731 246.222c7.111 14.585 20.854 24.695 36.753 27.035l254.853 44.475c19.986 2.932 36.648 17.139 42.869 36.619 6.246 19.479 0.983 40.868-13.473 55.157zM2322.862 455.38l-182.749 158.543c-11.506 11.355-16.757 27.714-14.04 43.748l43.151 254.663c3.376 20.18 0.006 34.641-16.34 46.695a52.75 52.75 0 0 1-31.253 10.278 52.543 52.543 0 0 1-24.716-6.188l-230.746-125.901a48.29 48.29 0 0 0-45.433 0l-221.06 125.903c-17.913 9.551-39.598 7.937-55.996-4.09-16.345-12.054-29.399-26.49-25.97-46.695l52.862-259.948c2.716-16.033-2.534-32.394-14.04-43.748l-192.459-153.257c-14.537-14.288-19.719-35.677-13.5-55.157 6.27-19.48 22.882-33.658 42.92-36.619l250.336-44.476c15.896-2.34 29.637-12.446 36.748-27.027L1795.83 45.876c8.93-18.376 27.4-30 47.651-30s38.667 11.623 47.651 30l110.731 246.222c7.111 14.585 20.854 24.695 36.753 27.035l254.853 44.475c19.986 2.932 36.648 17.139 42.869 36.619 6.246 19.479 0.983 40.868-13.473 55.157zM3563.174 455.38l-182.749 158.543c-11.506 11.355-16.757 27.714-14.04 43.748l43.151 254.663c3.376 20.18 0.006 34.641-16.34 46.695a52.745 52.745 0 0 1-31.253 10.278 52.543 52.543 0 0 1-24.716-6.188l-230.746-125.901a48.29 48.29 0 0 0-45.433 0l-221.06 125.903c-17.913 9.551-39.598 7.937-55.996-4.09-16.345-12.054-29.399-26.49-25.97-46.695l52.86-259.948c2.716-16.033-2.534-32.394-14.04-43.748l-192.459-153.257c-14.537-14.288-19.719-35.677-13.5-55.157 6.272-19.48 22.882-33.658 42.92-36.619l250.336-44.476c15.896-2.34 29.637-12.446 36.748-27.027L3036.14 45.876c8.93-18.376 27.4-30 47.651-30s38.667 11.623 47.651 30l110.731 246.222c7.111 14.585 20.854 24.695 36.753 27.035l254.853 44.475c19.986 2.932 36.648 17.139 42.869 36.619 6.246 19.479 0.983 40.868-13.473 55.157zM4803.487 455.38l-182.749 158.543c-11.506 11.355-16.757 27.714-14.04 43.748l43.151 254.663c3.376 20.18 0.006 34.641-16.34 46.695a52.745 52.745 0 0 1-31.253 10.278 52.543 52.543 0 0 1-24.716-6.188l-230.746-125.901a48.29 48.29 0 0 0-45.433 0l-221.06 125.903c-17.913 9.551-39.598 7.937-55.996-4.09-16.345-12.054-29.399-26.49-25.97-46.695l52.86-259.948c2.716-16.033-2.534-32.394-14.04-43.748l-192.459-153.257c-14.537-14.288-19.719-35.677-13.5-55.157 6.272-19.48 22.882-33.658 42.92-36.619l250.336-44.476c15.896-2.34 29.637-12.446 36.748-27.027l115.253-246.228c8.93-18.376 27.4-30 47.651-30s38.667 11.623 47.651 30l110.731 246.222c7.111 14.585 20.854 24.695 36.753 27.035l254.853 44.475c19.986 2.932 36.648 17.139 42.869 36.619 6.246 19.479 0.983 40.868-13.473 55.157zM6043.799 455.38L5861.05 613.923c-11.506 11.355-16.757 27.714-14.04 43.748l43.151 254.663c3.376 20.18 0.006 34.641-16.34 46.695a52.745 52.745 0 0 1-31.253 10.278 52.543 52.543 0 0 1-24.716-6.188l-230.746-125.901a48.29 48.29 0 0 0-45.433 0l-221.06 125.903c-17.913 9.551-39.598 7.937-55.996-4.09-16.345-12.054-29.399-26.49-25.97-46.695l52.86-259.948c2.716-16.033-2.534-32.394-14.04-43.748l-192.459-153.257c-14.537-14.288-19.719-35.677-13.5-55.157 6.272-19.48 22.882-33.658 42.92-36.619l250.336-44.476c15.896-2.34 29.637-12.446 36.748-27.027l115.253-246.228c8.93-18.376 27.4-30 47.653-30s38.667 11.623 47.651 30L5722.8 292.098c7.111 14.585 20.854 24.695 36.753 27.035l254.853 44.475c19.986 2.932 36.648 17.139 42.869 36.619 6.246 19.479 0.983 40.868-13.473 55.157z" fill="#f4ea2a" p-id="23990"></path></svg>