<?xml version="1.0" standalone="no"?><!DOCTYPE svg PUBLIC "-//W3C//DTD SVG 1.1//EN" "http://www.w3.org/Graphics/SVG/1.1/DTD/svg11.dtd"><svg t="1533479917332" class="icon" style="" viewBox="0 0 1024 1024" version="1.1" xmlns="http://www.w3.org/2000/svg" p-id="9505" xmlns:xlink="http://www.w3.org/1999/xlink" width="64" height="64"><defs><style type="text/css"></style></defs><path d="M593.6 709.6c-18.4 0-32.8 14.4-32.8 32.8v142.4c0 18.4 14.4 32.8 32.8 32.8s32.8-14.4 32.8-32.8V742.4c0-18.4-14.4-32.8-32.8-32.8zM776.8 709.6c-18.4 0-32.8 14.4-32.8 32.8v142.4c0 18.4 14.4 32.8 32.8 32.8s32.8-14.4 32.8-32.8V742.4c0-18.4-15.2-32.8-32.8-32.8zM681.6 533.6c-18.4 0-32.8 14.4-32.8 32.8v319.2c0 18.4 14.4 32.8 32.8 32.8s32.8-14.4 32.8-32.8v-320c0-17.6-14.4-32-32.8-32zM776.8 533.6c-18.4 0-32.8 14.4-32.8 32.8v54.4c0 18.4 14.4 32.8 32.8 32.8s32.8-14.4 32.8-32.8v-54.4c0-18.4-15.2-32.8-32.8-32.8zM868 533.6c-18.4 0-32.8 14.4-32.8 32.8v319.2c0 18.4 14.4 32.8 32.8 32.8s32.8-14.4 32.8-32.8v-320c0-17.6-14.4-32-32.8-32zM396.8 106.4H205.6c-52.8 0-95.2 43.2-95.2 95.2v191.2c0 52.8 43.2 95.2 95.2 95.2h191.2c52.8 0 95.2-43.2 95.2-95.2V201.6c0-52.8-42.4-95.2-95.2-95.2z m30.4 286.4c0 16.8-13.6 30.4-30.4 30.4H205.6c-16.8 0-30.4-13.6-30.4-30.4V201.6c0-16.8 13.6-30.4 30.4-30.4h191.2c16.8 0 30.4 13.6 30.4 30.4v191.2zM396.8 534.4H205.6c-52.8 0-95.2 43.2-95.2 95.2v191.2c0 52.8 43.2 95.2 95.2 95.2h191.2c52.8 0 95.2-43.2 95.2-95.2V629.6c0-52.8-42.4-95.2-95.2-95.2z m30.4 286.4c0 16.8-13.6 30.4-30.4 30.4H205.6c-16.8 0-30.4-13.6-30.4-30.4V629.6c0-16.8 13.6-30.4 30.4-30.4h191.2c16.8 0 30.4 13.6 30.4 30.4v191.2z" p-id="9506" fill="#ffffff"></path><path d="M301.6 297.6m-62.4 0a62.4 62.4 0 1 0 124.8 0 62.4 62.4 0 1 0-124.8 0Z" p-id="9507" fill="#ffffff"></path><path d="M818.4 106.4H627.2c-52.8 0-95.2 43.2-95.2 95.2v191.2c0 52.8 43.2 95.2 95.2 95.2h191.2c52.8 0 95.2-43.2 95.2-95.2V201.6c0-52.8-42.4-95.2-95.2-95.2z m30.4 286.4c0 16.8-13.6 30.4-30.4 30.4H627.2c-16.8 0-30.4-13.6-30.4-30.4V201.6c0-16.8 13.6-30.4 30.4-30.4h191.2c16.8 0 30.4 13.6 30.4 30.4v191.2z" p-id="9508" fill="#ffffff"></path></svg>