<?xml version="1.0" standalone="no"?><!DOCTYPE svg PUBLIC "-//W3C//DTD SVG 1.1//EN" "http://www.w3.org/Graphics/SVG/1.1/DTD/svg11.dtd"><svg t="1533301992648" class="icon" style="" viewBox="0 0 1024 1024" version="1.1" xmlns="http://www.w3.org/2000/svg" p-id="113352" xmlns:xlink="http://www.w3.org/1999/xlink" width="64" height="64"><defs><style type="text/css"></style></defs><path d="M511.6192 85.080533c-235.6416 0-426.666667 191.025067-426.666667 426.666667s191.025067 426.666667 426.666667 426.666667 426.666667-191.025067 426.666667-426.666667-191.025067-426.666667-426.666667-426.666667z m174.376533 601.5232h-0.0672c-18.023467 38.514133-40.090667 51.809067-77.509333 51.809067H414.750933c-28.509867 0-61.677867-13.294933-77.44-51.809067v-12.884266h348.685867v12.884266z m32.209067-207.168c-3.0144 0-5.892267-0.343467-8.702933-0.891733l-6.1664 28.440533c-0.96 28.782933-17.406933 127.879467-17.406934 127.879467H337.310933s-10.3488-99.3024-12.884266-129.524267l-5.413334-28.372266c-4.455467 1.508267-9.114667 2.468267-13.9808 2.468266-24.945067 0-45.162667-20.285867-45.162666-45.367466 0-25.0144 20.2176-45.2992 45.162666-45.2992 25.013333 0 45.1616 20.2848 45.1616 45.2992 0 7.6064-2.055467 14.664533-5.345066 20.9696l82.786133 30.839466 69.5584-112.6656c-17.8176-6.030933-30.770133-22.821333-30.770133-42.762666 0-25.0144 20.216533-45.368533 45.1616-45.368534 24.946133 0 45.230933 20.285867 45.230933 45.368534 0 19.941333-12.952533 36.731733-30.839467 42.762666l69.559467 112.6656 81.962667-32.346666c-2.8096-5.962667-4.5216-12.4736-4.5216-19.4624 0-25.0144 20.285867-45.368533 45.2288-45.368534 24.9472 0 45.162667 20.285867 45.162666 45.368534-0.001067 25.0816-20.216533 45.367467-45.163733 45.367466z" p-id="113353" data-spm-anchor-id="a313x.7781069.0.i128" fill="#e0620d" class="selected"></path></svg>