<?xml version="1.0" standalone="no"?><!DOCTYPE svg PUBLIC "-//W3C//DTD SVG 1.1//EN" "http://www.w3.org/Graphics/SVG/1.1/DTD/svg11.dtd"><svg t="1533288236131" class="icon" style="" viewBox="0 0 1024 1024" version="1.1" xmlns="http://www.w3.org/2000/svg" p-id="49729" xmlns:xlink="http://www.w3.org/1999/xlink" width="64" height="64"><defs><style type="text/css"></style></defs><path d="M818.499477 740.567189a9.1621 9.1621 0 0 0-9.162101-9.1621H354.304352a9.1621 9.1621 0 0 0-9.108205 9.1621v54.864813c0 5.012208 4.095998 9.1621 9.1621 9.162101h455.086919a9.1621 9.1621 0 0 0 9.108205-9.162101V740.513294z m0-255.999865a9.1621 9.1621 0 0 0-9.162101-9.162101H354.304352a9.1621 9.1621 0 0 0-9.108205 9.162101v54.864813c0 5.066103 4.095998 9.1621 9.1621 9.162101h455.086919a9.1621 9.1621 0 0 0 9.108205-9.162101V484.567324z m0-255.999865a9.1621 9.1621 0 0 0-9.162101-9.162101H354.304352a9.1621 9.1621 0 0 0-9.108205 9.162101v54.864813c0 5.066103 4.095998 9.1621 9.1621 9.1621h455.086919a9.1621 9.1621 0 0 0 9.108205-9.1621V228.567459z m-546.168976 511.99973a9.1621 9.1621 0 0 0-9.054311-9.1621H208.573061a9.1621 9.1621 0 0 0-9.108206 9.1621v54.864813c0 5.012208 4.095998 9.1621 9.1621 9.162101h54.59534a9.1621 9.1621 0 0 0 9.054311-9.162101V740.513294z m0-255.999865a9.1621 9.1621 0 0 0-9.054311-9.162101H208.573061a9.1621 9.1621 0 0 0-9.108206 9.162101v54.864813c0 5.066103 4.095998 9.1621 9.1621 9.162101h54.59534a9.1621 9.1621 0 0 0 9.054311-9.162101V484.567324z m0-255.999865a9.1621 9.1621 0 0 0-9.054311-9.162101H208.573061a9.1621 9.1621 0 0 0-9.108206 9.162101v54.864813c0 5.066103 4.095998 9.1621 9.1621 9.1621h54.59534a9.1621 9.1621 0 0 0 9.054311-9.1621V228.567459zM927.690156 1023.999461H90.274176A36.486718 36.486718 0 0 1 53.895247 987.404954V36.648402C53.895247 16.383991 70.171449 0 90.274176 0h837.41598c20.102726 0 36.432823 16.383991 36.432823 36.594507V987.351059a36.486718 36.486718 0 0 1-36.432823 36.594507z" fill="#e0620d" p-id="49730" data-spm-anchor-id="a313x.7781069.0.i71" class="selected"></path></svg>