<?xml version="1.0" standalone="no"?><!DOCTYPE svg PUBLIC "-//W3C//DTD SVG 1.1//EN" "http://www.w3.org/Graphics/SVG/1.1/DTD/svg11.dtd"><svg t="1533208575464" class="icon" style="" viewBox="0 0 1024 1024" version="1.1" xmlns="http://www.w3.org/2000/svg" p-id="67351" xmlns:xlink="http://www.w3.org/1999/xlink" width="64" height="64"><defs><style type="text/css"></style></defs><path d="M999.424 200.704c13.312 13.312 19.456 28.672 19.456 46.08 0 17.408-6.656 32.768-19.456 45.056l-182.272 182.272c-13.312 13.312-28.16 19.456-45.568 19.456-17.408 0-32.256-6.656-45.568-19.456L543.744 291.84c-12.288-12.288-18.432-27.648-18.432-45.056 0-17.408 6.144-32.768 18.432-46.08l182.272-182.272c13.312-12.288 28.16-18.432 45.568-18.432s32.256 6.144 45.568 18.432l182.272 182.272z" fill="#FFAF2E" p-id="67352"></path><path d="M372.224 93.184c16.896 0 31.744 5.632 43.52 17.408 12.288 11.776 17.92 26.112 17.92 43.008v244.736c0 16.896-6.144 31.744-17.92 43.52-11.776 12.8-26.624 18.944-43.52 18.944H127.488c-16.896 0-31.232-6.144-43.008-17.92-11.776-12.288-17.408-26.624-17.408-43.52V154.112c0-16.896 5.632-31.232 17.408-43.008 11.776-11.776 26.112-17.408 43.008-17.408 0-0.512 244.736-0.512 244.736-0.512z m0 489.984c16.896 0 31.744 5.632 43.52 17.408 12.288 11.776 17.92 26.112 17.92 43.008v245.76c0 16.896-6.144 31.232-17.92 43.008-12.288 11.776-26.624 17.408-43.52 17.408H127.488c-16.896 0-31.232-5.632-43.008-17.408-11.776-11.776-17.408-26.112-17.408-43.008v-245.76c0-16.896 5.632-31.232 17.408-43.008s26.112-17.408 43.008-17.408h244.736z m491.008 0c16.896 0 31.232 5.632 43.008 17.408 11.776 11.776 17.408 26.112 17.408 43.008v245.76c0 16.896-5.632 31.232-17.408 43.008-11.776 11.776-26.112 17.408-43.008 17.408h-244.736c-16.896 0-31.744-5.632-43.52-17.408-12.288-11.776-17.92-26.112-17.92-43.008v-245.76c0-16.896 6.144-31.232 17.92-43.008 12.288-11.776 26.624-17.408 43.52-17.408h244.736z" fill="#0CCCE3" p-id="67353"></path></svg>