<?xml version="1.0" standalone="no"?><!DOCTYPE svg PUBLIC "-//W3C//DTD SVG 1.1//EN" "http://www.w3.org/Graphics/SVG/1.1/DTD/svg11.dtd"><svg t="1533207917896" class="icon" style="" viewBox="0 0 1024 1024" version="1.1" xmlns="http://www.w3.org/2000/svg" p-id="51063" xmlns:xlink="http://www.w3.org/1999/xlink" width="64" height="64"><defs><style type="text/css"></style></defs><path d="M824.572689 848.60173 825.393801 421.5559 858.122906 421.5559C877.066254 421.5559 880.238971 412.332203 865.429787 401.121062L513.223274 134.486771C505.757358 128.834776 493.845613 129.103417 486.428669 135.243232L152.904894 411.337335C138.418017 423.32971 142.256084 433.384724 161.052836 433.786757L193.857117 434.488392 195.24274 849.295428 136.533333 849.295428 137.251805 908.365223 882.666264 909.00937 881.999111 850.187322 824.572689 848.60173ZM259.950594 477.565529 355.50734 478.655621 355.50734 559.421757 259.950594 559.02536 259.950594 477.565529 259.950594 477.565529ZM355.558659 721.166165 260.053233 720.819319 260.053233 639.458584 355.558659 640.350481 355.558659 721.166165 355.558659 721.166165ZM456.022822 317.979631 551.579566 319.069726 551.579566 399.835863 456.022822 399.489014 456.022822 317.979631 456.022822 317.979631ZM456.022822 477.565529 551.476927 478.655621 551.476927 559.421757 456.022822 558.975812 456.022822 477.565529 456.022822 477.565529ZM551.682205 836.703321 456.022822 836.108725 456.022822 639.458584 551.682205 639.458584 551.682205 836.703321ZM647.321856 477.565529 742.724642 478.655621 742.724642 559.421757 647.321856 558.975812 647.321856 477.565529 647.321856 477.565529ZM647.321856 639.409036 742.92992 640.30093 742.92992 721.166165 647.321856 720.819319 647.321856 639.409036 647.321856 639.409036Z" p-id="51064" fill="#e38629"></path></svg>