<?xml version="1.0" standalone="no"?><!DOCTYPE svg PUBLIC "-//W3C//DTD SVG 1.1//EN" "http://www.w3.org/Graphics/SVG/1.1/DTD/svg11.dtd"><svg t="1533302049366" class="icon" style="" viewBox="0 0 1024 1024" version="1.1" xmlns="http://www.w3.org/2000/svg" p-id="117622" xmlns:xlink="http://www.w3.org/1999/xlink" width="64" height="64"><defs><style type="text/css"></style></defs><path d="M512 0a512 512 0 1 0 512 512A512 512 0 0 0 512 0zM208.738462 392.979692l11.815384-12.051692a195.347692 195.347692 0 0 1 275.692308 0l6.222769 6.222769 77.981539 77.981539a42.220308 42.220308 0 1 1-59.707077 59.707077l-74.909539-74.83077-3.072-2.520615-1.654154-1.654154a21.740308 21.740308 0 1 0-30.72 30.72l1.496616 1.496616-60.179693 60.809846-135.876923 135.483077-0.787692 0.787692-6.301538-6.301539a195.347692 195.347692 0 0 1 0-275.849846z m239.379692 109.804308L488.999385 543.507692 281.521231 753.348923l-40.881231-40.96zM815.182769 669.538462l-12.209231 12.20923-2.520615 2.914462L582.892308 902.144a100.273231 100.273231 0 0 1-132.962462 7.876923l186.604308-186.998154a23.158154 23.158154 0 0 0-32.689231-32.689231L416.768 877.489231l-34.579692-34.658462 187.155692-187.155692a23.158154 23.158154 0 0 0-32.689231-32.689231l-187.234461 187.155692-31.507693-31.507692L519.010462 575.015385a85.622154 85.622154 0 0 0 92.553846-139.972923L543.507692 366.749538a194.008615 194.008615 0 0 1 259.938462 14.41477l12.051692 12.051692a195.347692 195.347692 0 0 1-0.315077 276.322462z" fill="#e0620d" p-id="117623" data-spm-anchor-id="a313x.7781069.0.i131" class="selected"></path></svg>