<?xml version="1.0" standalone="no"?><!DOCTYPE svg PUBLIC "-//W3C//DTD SVG 1.1//EN" "http://www.w3.org/Graphics/SVG/1.1/DTD/svg11.dtd"><svg t="1533302353570" class="icon" style="" viewBox="0 0 1024 1024" version="1.1" xmlns="http://www.w3.org/2000/svg" p-id="125157" xmlns:xlink="http://www.w3.org/1999/xlink" width="64" height="64"><defs><style type="text/css"></style></defs><path d="M925.515412 0H98.984003C70.41748 0 47.344518 23.172844 47.344518 51.639485v958.676551c0 9.788529 10.887242 15.681623 19.077644 10.188061l107.274287-71.516192c17.27975-11.586422 39.853297-11.586422 57.232931 0l97.785407 65.223566c17.27975 11.586422 39.853297 11.586422 57.232931 0l97.785407-65.223566c17.27975-11.586422 39.853297-11.586422 57.23293 0l97.785408 65.223566c17.27975 11.586422 39.853297 11.586422 57.23293 0l97.785408-65.223566c17.27975-11.586422 39.853297-11.586422 57.23293 0l107.274288 71.516192c8.190402 5.393679 19.077643-0.399532 19.077644-10.188061V51.639485C977.25478 23.172844 954.081935 0 925.515412 0zM241.017558 217.445181h232.427623c21.374951 0 38.754584 17.379633 38.754585 38.754585S494.920016 294.854467 473.545064 294.854467H241.017558c-21.374951 0-38.754584-17.379633-38.754585-38.754584s17.379633-38.654702 38.754585-38.654702z m542.464299 490.724932H241.017558c-21.374951 0-38.754584-17.379633-38.754585-38.754584s17.379633-38.754584 38.754585-38.754585h542.464299c21.374951 0 38.754584 17.379633 38.754585 38.754585s-17.379633 38.754584-38.754585 38.754584z m0-206.657823H241.017558c-21.374951 0-38.754584-17.379633-38.754585-38.754584s17.379633-38.754584 38.754585-38.754585h542.464299c21.374951 0 38.754584 17.379633 38.754585 38.754585 0 21.474834-17.379633 38.754584-38.754585 38.754584z" fill="#0e9d95" p-id="125158" data-spm-anchor-id="a313x.7781069.0.i141" class="selected"></path></svg>