<?xml version="1.0" standalone="no"?><!DOCTYPE svg PUBLIC "-//W3C//DTD SVG 1.1//EN" "http://www.w3.org/Graphics/SVG/1.1/DTD/svg11.dtd"><svg t="1533365522543" class="icon" style="" viewBox="0 0 1024 1024" version="1.1" xmlns="http://www.w3.org/2000/svg" p-id="5762" xmlns:xlink="http://www.w3.org/1999/xlink" width="64" height="64"><defs><style type="text/css"></style></defs><path d="M512.242975 0.00005A511.991975 511.991975 0 1 0 1023.99995 511.992025 512.462975 512.462975 0 0 0 512.242975 0.00005z m0 967.331953a455.574978 455.574978 0 1 1 455.339978-455.339978 456.044978 456.044978 0 0 1-455.339978 455.339978z" p-id="5763" fill="#000000"></path><path d="M768.003962 218.854039L398.466981 383.407031a28.208999 28.208999 0 0 0-14.34 14.34L219.574989 767.282013a28.208999 28.208999 0 0 0 37.376998 37.376998l369.536982-164.551992a28.208999 28.208999 0 0 0 14.34-14.34L805.379961 256.232037a28.208999 28.208999 0 0 0-37.376999-37.376998zM593.107971 592.858021L300.675985 723.560015l130.700994-292.432986L723.809965 300.425035z" p-id="5764" fill="#000000"></path><path d="M482.521976 541.733024a42.077998 42.077998 0 1 0 59.507998-59.507998 42.077998 42.077998 0 1 0-59.507998 59.507998z" p-id="5765" fill="#000000"></path></svg>