<?xml version="1.0" standalone="no"?><!DOCTYPE svg PUBLIC "-//W3C//DTD SVG 1.1//EN" "http://www.w3.org/Graphics/SVG/1.1/DTD/svg11.dtd"><svg t="1533479867547" class="icon" style="" viewBox="0 0 1024 1024" version="1.1" xmlns="http://www.w3.org/2000/svg" p-id="8854" xmlns:xlink="http://www.w3.org/1999/xlink" width="64" height="64"><defs><style type="text/css"></style></defs><path d="M857.5 80.1H166.9c-38.2 0-69.2 29.5-69.2 65.8v657c0 19.7 9.5 38.2 26.1 50.8 1.3 2.1 3.5 4.5 5.8 6.6l70.9 64.1c8.3 7.5 19.2 11.6 30.9 11.6s22.7-4.2 31.1-11.7l61.1-55.2 60.3 54.7c8.3 7.5 19.3 11.6 30.9 11.6 11.6 0 22.7-4.1 31.1-11.7l60.5-54.7 67.4 54.7c8.2 7.1 18.9 11 30.2 11 11.6 0 22.7-4.2 31.1-11.7l60.3-54.5h5.6l60.4 54.6c8.3 7.5 19.3 11.6 30.9 11.6 11.7 0 22.7-4.2 31-11.7l71.5-64.6c0.9-0.9 1.9-1.8 2.7-2.7 18.4-12.1 29.3-31.5 29.3-53v-657c-0.1-36.1-31.1-65.6-69.3-65.6z m9.1 737.1l-7 6.3h-0.1l-67.3 60.8-63.5-57.4-16.7-6.5-26.9-0.2-16.8 6.2-64.5 58.1-72.5-58.5-15.7-5.6-19-0.1-16.8 6.2-65 58.5-64.2-58-16.7-6.5-20-0.2-16.8 6.2-65.6 59.1-66.7-60.2-0.1 0.2-7.1-8.1c-5.8-3.8-8.9-8.8-8.9-14.3l2.4-642.6c0-9.5 16.7-26.8 26.7-26.8h668.7c10 0 26.7 17.2 26.7 26.8l2.4 642.6c0.1 5.4-3.3 10.7-9 14zM284.8 320.8h267.5c14.8 0 26.7-12 26.7-26.7 0-14.8-12-26.7-26.7-26.7H284.8c-14.8 0-26.7 12-26.7 26.7 0 14.8 12 26.7 26.7 26.7z m454.8 107H284.8c-14.8 0-26.7 12-26.7 26.8s12 26.7 26.7 26.7h454.7c14.8 0 26.7-12 26.7-26.7s-11.8-26.8-26.6-26.8z m0 160.5H284.8c-14.8 0-26.7 12-26.7 26.8s12 26.7 26.7 26.7h454.7c14.8 0 26.7-12 26.7-26.7s-11.8-26.8-26.6-26.8z" p-id="8855" fill="#ffffff"></path></svg>