<?xml version="1.0" standalone="no"?><!DOCTYPE svg PUBLIC "-//W3C//DTD SVG 1.1//EN" "http://www.w3.org/Graphics/SVG/1.1/DTD/svg11.dtd"><svg t="1533302402636" class="icon" style="" viewBox="0 0 1024 1024" version="1.1" xmlns="http://www.w3.org/2000/svg" p-id="130071" xmlns:xlink="http://www.w3.org/1999/xlink" width="64" height="64"><defs><style type="text/css"></style></defs><path d="M512 0C229.248 0 0 229.1712 0 512c0 282.752 229.248 512 512 512s512-229.248 512-512C1024 229.1712 794.752 0 512 0z m-29.76 405.7088h-104.7936c-59.5968 0-106.2272 46.6944-106.2272 106.2912 0 59.52 46.7072 106.2272 106.2272 106.2272h104.8576v87.7824h-104.8576c-106.9696 0-193.9456-87.04-193.9456-194.0096s86.976-194.0096 193.9456-194.0096h104.8576v87.7184h-0.064z m164.2496 300.3008H541.696V618.24h104.7936c59.5968 0 106.2912-46.6944 106.2912-106.2272 0-59.5968-46.6944-106.2912-106.2912-106.2912H541.696v-87.7184h104.7936c106.9696 0 194.0096 86.9632 194.0096 194.0096 0 106.9056-86.976 194.0096-194.0096 194.0096z" p-id="130072" data-spm-anchor-id="a313x.7781069.0.i144" fill="#0e9d95" class="selected"></path></svg>