<?xml version="1.0" standalone="no"?><!DOCTYPE svg PUBLIC "-//W3C//DTD SVG 1.1//EN" "http://www.w3.org/Graphics/SVG/1.1/DTD/svg11.dtd"><svg t="1533302099495" class="icon" style="" viewBox="0 0 1024 1024" version="1.1" xmlns="http://www.w3.org/2000/svg" p-id="120096" xmlns:xlink="http://www.w3.org/1999/xlink" width="64" height="64"><defs><style type="text/css"></style></defs><path d="M512 0C229.2224 0 0 229.2224 0 512c0 282.7264 229.2224 512 512 512s512-229.2736 512-512c0-282.7776-229.2224-512-512-512zM237.2608 587.7248a8.9088 8.9088 0 0 1-17.8176 0v-75.776c0-4.864 3.9424-8.8576 8.8576-8.8576s8.96 3.9936 8.96 8.8576v75.776z m554.3936 25.9584a38.7072 38.7072 0 0 1-38.9632 38.5024h-37.1712a38.7072 38.7072 0 0 1-38.7072-38.5024V479.0784c0-18.432 13.1584-33.8432 30.6688-37.5808-35.9936-78.1312-107.008-131.4304-188.6208-131.4304-81.5616 0-152.5248 53.3504-188.6208 131.4304a38.656 38.656 0 0 1 30.6688 37.5808v134.5536a38.4 38.4 0 0 1-23.552 35.2768l96.9728 78.3872h39.5776v-1.9968c0-7.0144 5.8368-12.7488 13.0048-12.7488h61.4912c7.168 0 13.056 5.7344 13.056 12.7488v22.4256a13.0048 13.0048 0 0 1-13.056 12.8512h-61.44a12.9536 12.9536 0 0 1-13.0048-12.8512v-1.9456h-46.2336l-115.712-93.696h-26.9312a38.7072 38.7072 0 0 1-38.9632-38.5024V479.0784c0-21.2992 17.408-38.5024 38.9632-38.5024h10.3424c39.168-95.8976 124.5696-162.6112 223.488-162.6112s184.3712 66.7136 223.4368 162.6112h10.3424c21.6064 0 38.9632 17.2032 38.9632 38.5024v134.6048z m27.5456-25.9584a8.9088 8.9088 0 0 1-8.96 8.8576 8.8576 8.8576 0 0 1-8.9088-8.8576v-75.776a8.96 8.96 0 0 1 17.8688 0v75.776z" fill="#0e9d95" p-id="120097" data-spm-anchor-id="a313x.7781069.0.i134" class="selected"></path></svg>