<?xml version="1.0" standalone="no"?><!DOCTYPE svg PUBLIC "-//W3C//DTD SVG 1.1//EN" "http://www.w3.org/Graphics/SVG/1.1/DTD/svg11.dtd"><svg t="1533301418848" class="icon" style="" viewBox="0 0 1025 1024" version="1.1" xmlns="http://www.w3.org/2000/svg" p-id="94759" xmlns:xlink="http://www.w3.org/1999/xlink" width="64.0625" height="64"><defs><style type="text/css"></style></defs><path d="M1024.633403 790.977829c-0.002047 13.323447-1.812275 26.446325-7.679913 38.501896-17.33276 35.605939-45.478797 55.030337-85.482907 55.510268-29.346375 0.352017-58.70503 0.077771-88.056522 0.067538-1.458211 0-2.915399-0.148379-5.059226-0.26606 0-15.355733 0-30.447453 0-45.51359-16.114003 0-31.519878 0-47.501874 0 0 15.329127 0 30.287817 0 45.788859-2.865257 0-5.15644 0-7.448646 0-228.476645 0-456.958406 0-685.439144-0.002047-2.334161 0-4.669346-0.01228-7.003508-0.058328-42.536792-0.825808-78.18264-29.482475-88.258113-71.002101-1.054005-4.351098-1.809205-8.779967-2.703575-13.170974 0-192.552457 0-385.103892 0-577.656349 0.372483-1.606591 0.689708-3.228531 1.12666-4.817726 2.201132-8.015557 3.301186-16.572444 6.848988-23.940249 17.472953-36.273135 46.284139-55.486732 86.930885-55.492872 230.147704-0.042979 460.296431-0.021489 690.443112-0.01228 1.7519 0 3.50687 0.151449 5.78475 0.255827 0 15.914458 0 31.228235 0 46.562479 15.97688 0 31.391964 0 47.535643 0 0-15.766079 0-31.18014 0-46.606481 1.546216-0.104377 2.371-0.207731 3.198855-0.207731 30.519084 0.007163 61.042261-0.322341 91.552136 0.246617 9.358135 0.174985 19.074428 1.591241 27.932166 4.538363 38.919405 12.944823 63.21781 47.298236 63.24544 89.225137C1024.720384 418.944628 1024.658986 604.961228 1024.633403 790.977829zM275.449446 641.320321c27.696806-25.973558 52.04126-55.923684 73.034387-89.851401l0 126.385479 27.572986 0L376.056818 561.90869c23.349801 18.641569 45.087894 37.281091 65.209164 55.921637l18.631336-23.859407c-23.473621-18.268062-46.204321-35.665291-68.191078-52.195779l-15.648398 19.016099 0-46.230927 76.387761 0 0-27.590382-76.387761 0 0-29.079292-27.572986 0 0 29.079292L266.88028 486.96993l0 27.590382 76.014254 0c-20.99108 40.016389-50.92688 75.682703-89.801259 106.999966C263.275172 630.009717 270.727911 636.595716 275.449446 641.320321zM390.962296 432.538227c-10.18599-19.385513-21.239743-39.766702-33.163307-61.142545l-22.729677 11.930727c12.172227 21.87317 22.478967 42.62582 30.928407 62.261019L390.962296 432.538227zM322.774288 443.349457c-10.93198-19.635199-22.23542-39.144532-33.909297-58.532091l-22.357194 12.302187c12.417821 21.375843 23.101137 41.383526 32.045857 60.025095L322.774288 443.349457zM457.289934 325.538261c-58.379619 4.472871-123.96229 8.451486-196.744943 11.929704 2.729158 9.694803 4.966105 18.767436 6.706749 27.216875 82.97069-4.721535 148.550291-8.822946 196.744943-12.30321L457.289934 325.538261zM441.639489 369.532241c-14.410198 30.075992-28.319999 56.297191-41.73452 78.665641l23.103184 11.55722c18.380626-31.564903 32.913621-57.163931 43.597961-76.801177L441.639489 369.532241zM577.646093 327.776232c-28.319999 36.786835-69.434395 67.978231-123.338073 93.577259 5.464455 6.710842 11.673877 14.791891 18.631336 24.233937 54.649668-30.073946 97.873098-64.00064 129.672338-101.780081L577.646093 327.776232zM587.337826 428.064332c-26.832112 35.046191-68.193125 66.239634-124.085086 93.578282 6.954389 9.44614 12.670577 17.774829 17.140379 24.977881 54.152341-29.079292 97.625458-62.506613 130.417305-100.288101L587.337826 428.064332zM599.630803 526.490016c-37.512359 51.947116-96.012727 94.077655-175.504176 126.385479 6.954389 7.952112 13.414521 16.279778 19.37528 24.980951 76.510558-32.809243 136.1294-76.8022 178.858574-131.979894L599.630803 526.490016zM791.284798 745.419214c15.788591 0 31.213909 0 46.825468 0 0-15.435551 0-30.538527 0-45.756113-15.790638 0-31.210839 0-46.825468 0C791.284798 715.115024 791.284798 730.237443 791.284798 745.419214zM838.0898 280.469809c-15.688307 0-30.990828 0-46.782489 0 0 15.582907 0 30.689976 0 45.839001 15.800871 0 31.223119 0 46.782489 0C838.0898 310.86098 838.0898 295.764144 838.0898 280.469809zM838.333347 422.35633c-0.008186-0.838088-1.49505-2.37714-2.306532-2.385327-7.389294-0.071631-14.777565-0.099261-22.169929-0.107447s-14.786775 0.001023-22.187325 0.001023c-0.305969 1.042749-0.644683 1.664919-0.647753 2.287089-0.046049 14.009062-0.002047 28.021194-0.11768 42.032302-0.028653 3.278673 1.89721 3.299139 4.224208 3.292999 9.487072-0.028653 18.974144-0.00921 28.462239-0.008186 4.774747 0 9.549493 0 14.845103 0C838.436701 451.954439 838.475586 437.154361 838.333347 422.35633zM838.454097 563.841715c-0.00307-1.260713-0.283456-2.518357-0.459464-3.977591-15.603373 0-30.860868 0-46.552246 0 0 15.977903 0 31.499411-0.001023 47.335075 0 0 0 0 0.001023 0l0 0c3.290953 0 6.55223-0.008186 9.79611-0.016373 3.89061-0.00921 7.754614-0.01842 11.596106-0.021489 7.046486-0.00614 14.026458 0.014326 21.007453 0.121773 3.869121 0.060375 4.754281-1.325182 4.705162-4.925173-0.091074-6.418176-0.106424-12.837376-0.103354-19.256576C838.447957 576.682161 838.47047 570.262962 838.454097 563.841715z" p-id="94760" data-spm-anchor-id="a313x.7781069.0.i103" class="" fill="#ed172e"></path></svg>