<?xml version="1.0" standalone="no"?><!DOCTYPE svg PUBLIC "-//W3C//DTD SVG 1.1//EN" "http://www.w3.org/Graphics/SVG/1.1/DTD/svg11.dtd"><svg t="1533287967892" class="icon" style="" viewBox="0 0 1024 1024" version="1.1" xmlns="http://www.w3.org/2000/svg" p-id="32948" xmlns:xlink="http://www.w3.org/1999/xlink" width="64" height="64"><defs><style type="text/css"></style></defs><path d="M973.736525 383.84331v-173.061111c0-15.894731-12.878345-28.792944-28.78572-28.792945H81.399086c-15.903762 0-28.78572 12.900019-28.785719 28.792945v173.061111c72.142212 3.778611 129.533029 63.291736 129.533028 136.36957 0 73.097702-57.389011 132.590958-129.533028 136.367763v173.070143c0 15.903762 12.881957 28.787526 28.785719 28.787526h863.551719c15.907375 0 28.78572-12.883763 28.78572-28.787526v-173.070143c-72.138599-3.776805-129.531223-63.270062-129.531223-136.367763 0-73.079639 57.390817-132.590958 129.531223-136.36957M635.512899 570.60279c11.912017 0 21.589741 9.663274 21.589742 21.607804 0 11.910211-9.677724 21.553617-21.589742 21.553617h-93.553137V707.315542c0 11.944529-9.677724 21.625866-21.587935 21.625865-11.926467 0-21.587935-9.67953-21.587935-21.625865v-93.551331h-93.551331c-11.928273 0-21.587935-9.643406-21.587935-21.553617 0-11.944529 9.661468-21.607803 21.587935-21.607804h93.551331v-71.943527h-93.551331c-11.928273 0-21.587935-9.677724-21.587935-21.589741 0-11.944529 9.661468-21.605997 21.587935-21.605997h84.610545l-92.310458-92.328521c-8.436851-8.436851-8.436851-22.109932 0-30.528721 8.420595-8.438657 22.09187-8.438657 30.530527 0l88.656476 88.656476 89.109838-89.089969c8.454913-8.454913 22.164119-8.454913 30.617226 0 8.454913 8.454913 8.454913 22.164119 0 30.619033l-92.650028 92.671702h91.714406c11.912017 0 21.589741 9.661468 21.589741 21.605997 0 11.910211-9.677724 21.589741-21.589741 21.589741h-93.553137v71.943527h93.554943z" p-id="32949" data-spm-anchor-id="a313x.7781069.0.i62" fill="#e0620d" class="selected"></path></svg>