<?xml version="1.0" standalone="no"?><!DOCTYPE svg PUBLIC "-//W3C//DTD SVG 1.1//EN" "http://www.w3.org/Graphics/SVG/1.1/DTD/svg11.dtd"><svg t="1533365873147" class="icon" style="" viewBox="0 0 1024 1024" version="1.1" xmlns="http://www.w3.org/2000/svg" p-id="14334" xmlns:xlink="http://www.w3.org/1999/xlink" width="64" height="64"><defs><style type="text/css"></style></defs><path d="M501.31456 0.03072c-157.07136 0-284.88192 120.99584-284.88192 269.69088s127.81056 269.7216 284.88192 269.7216 284.8512-120.99584 284.8512-269.7216S658.38592 0 501.31456 0v0.03072z m0 484.58752c-125.6704 0-227.82976-96.4352-227.82976-214.90176 0-118.49728 102.15936-214.87104 227.82976-214.93248 125.60896 0 227.83488 96.4352 227.83488 214.93248s-102.16448 214.90176-227.83488 214.90176z m117.38624 80.77312H405.23776c-198.3232 0-359.64416 152.63744-359.64416 340.3008v20.18304C45.5936 1024 204.32384 1024 405.23776 1024h213.45792c193.01888 0 359.7056 0 359.7056-98.09408v-20.18304c0.00512-187.66848-161.37728-340.33152-359.70048-340.33152z m302.62784 360.5504c0 43.29984-189.44 43.29984-302.6944 43.29984H405.21216c-134.83008 0-302.65344 0-302.65344-43.29984v-20.18816c0-157.44 135.76192-285.54752 302.65344-285.54752h213.4272c166.93248 0 302.6944 128.08192 302.6944 285.52192v20.21376z" p-id="14335" fill="#000000"></path></svg>