<?xml version="1.0" standalone="no"?><!DOCTYPE svg PUBLIC "-//W3C//DTD SVG 1.1//EN" "http://www.w3.org/Graphics/SVG/1.1/DTD/svg11.dtd"><svg t="1533366374190" class="icon" style="" viewBox="0 0 1024 1024" version="1.1" xmlns="http://www.w3.org/2000/svg" p-id="22381" xmlns:xlink="http://www.w3.org/1999/xlink" width="64" height="64"><defs><style type="text/css"></style></defs><path d="M937.452081 981.785249A98.555386 98.555386 0 0 1 857.490734 1024H165.043153a98.532114 98.532114 0 0 1-79.961347-42.214751 118.685352 118.685352 0 0 1-16.522863-104.955086 486.935748 486.935748 0 0 1 319.28687-326.198546A289.778433 289.778433 0 0 1 511.255308 0.04794 281.889348 281.889348 0 0 1 798.241144 289.570385a289.848248 289.848248 0 0 1-163.459983 261.03796 486.935748 486.935748 0 0 1 319.286869 326.221818 118.685352 118.685352 0 0 1-16.615949 104.955086z" p-id="22382" data-spm-anchor-id="a313x.7781069.0.i48" fill="#0e9d95" class="selected"></path></svg>