<?xml version="1.0" standalone="no"?><!DOCTYPE svg PUBLIC "-//W3C//DTD SVG 1.1//EN" "http://www.w3.org/Graphics/SVG/1.1/DTD/svg11.dtd"><svg t="1533302305730" class="icon" style="" viewBox="0 0 1024 1024" version="1.1" xmlns="http://www.w3.org/2000/svg" p-id="122003" xmlns:xlink="http://www.w3.org/1999/xlink" width="64" height="64"><defs><style type="text/css"></style></defs><path d="M 293.075 973.715 l 457.025 1.7053e-013 c 39.682 1.06581e-014 71.599 -33.542 71.599 -75.028 l 1.7053e-013 -672.189 c 1.33227e-015 -4.147 -149.332 -153.127 -149.332 -153.127 l -379.294 -1.42109e-013 c -39.682 -1.06581e-014 -71.599 33.542 -71.599 75.028 l -2.27374e-013 750.286 c -1.06581e-014 41.483 32.101 75.028 71.599 75.028 Z M 510.587 873.796 l -114.709 -3.55271e-014 l 4.26326e-014 -141.401 l 114.709 3.55271e-014 l -4.26326e-014 141.401 Z M 635.571 873.796 l -104.251 -3.55271e-014 l 4.26326e-014 -141.401 l 104.251 3.55271e-014 l -4.26326e-014 141.401 Z M 771.021 822.393 c -8.88178e-015 28.314 -18.757 51.404 -41.663 51.404 l -72.868 -1.42109e-014 l 4.26326e-014 -141.401 l 114.709 3.55271e-014 l -2.13163e-014 90 Z M 656.494 423.623 l 72.868 1.42109e-014 c 23.087 1.06581e-014 41.663 22.907 41.663 51.404 l -2.13163e-014 90 l -114.709 -3.55271e-014 l 4.26326e-014 -141.401 Z M 531.328 423.623 l 104.251 3.55271e-014 l -4.26326e-014 141.401 l -104.251 -3.55271e-014 l 4.26326e-014 -141.401 Z M 395.875 423.623 l 114.709 3.55271e-014 l -4.26326e-014 141.401 l -114.709 -3.55271e-014 l 4.26326e-014 -141.401 Z M 270.709 475.026 c 8.88178e-015 -28.314 18.575 -51.404 41.663 -51.404 l 62.586 1.77636e-014 l -4.26326e-014 167.018 l 396.063 1.42109e-013 l -4.26326e-014 115.787 l -500.313 -1.42109e-013 l 8.52651e-014 -231.402 Z M 270.709 822.393 l 2.13163e-014 -90 l 104.251 3.55271e-014 l -4.26326e-014 141.401 l -62.586 -1.77636e-014 c -22.907 -3.55271e-015 -41.663 -23.087 -41.663 -51.404 Z" fill="#0e9d95" p-id="122004" data-spm-anchor-id="a313x.7781069.0.i138" class="selected"></path></svg>