<?xml version="1.0" standalone="no"?><!DOCTYPE svg PUBLIC "-//W3C//DTD SVG 1.1//EN" "http://www.w3.org/Graphics/SVG/1.1/DTD/svg11.dtd"><svg t="1533517207478" class="icon" style="" viewBox="0 0 1024 1024" version="1.1" xmlns="http://www.w3.org/2000/svg" p-id="3336" xmlns:xlink="http://www.w3.org/1999/xlink" width="64" height="64"><defs><style type="text/css"></style></defs><path d="M791.466667 866.133333h-140.8c-19.2 0-34.133333-14.933333-34.133334-34.133333s14.933333-34.133333 34.133334-34.133333h140.8c4.266667 0 6.4-2.133333 6.4-6.4v-147.2c0-19.2 14.933333-34.133333 34.133333-34.133334s34.133333 14.933333 34.133333 34.133334v147.2c0 40.533333-34.133333 74.666667-74.666666 74.666666z m-396.8 0h-162.133334c-40.533333 0-74.666667-34.133333-74.666666-74.666666v-147.2c0-19.2 14.933333-34.133333 34.133333-34.133334s34.133333 14.933333 34.133333 34.133334v147.2c0 4.266667 4.266667 6.4 6.4 6.4h162.133334c19.2 0 34.133333 14.933333 34.133333 34.133333s-14.933333 34.133333-34.133333 34.133333zM832 413.866667c-19.2 0-34.133333-14.933333-34.133333-34.133334v-147.2c0-4.266667-4.266667-6.4-6.4-6.4h-140.8c-19.2 0-34.133333-14.933333-34.133334-34.133333s14.933333-34.133333 34.133334-34.133333h140.8c40.533333 0 74.666667 34.133333 74.666666 74.666666v147.2c0 19.2-14.933333 34.133333-34.133333 34.133334z m-640 0c-19.2 0-34.133333-14.933333-34.133333-34.133334v-147.2C157.866667 192 192 157.866667 232.533333 157.866667h162.133334c19.2 0 34.133333 14.933333 34.133333 34.133333s-14.933333 34.133333-34.133333 34.133333h-162.133334c-4.266667 0-6.4 2.133333-6.4 6.4v147.2c0 19.2-14.933333 34.133333-34.133333 34.133334z" p-id="3337" fill="#ffffff"></path><path d="M870.4 539.733333H177.066667c-19.2 0-34.133333-14.933333-34.133334-34.133333s14.933333-34.133333 34.133334-34.133333h693.333333c19.2 0 34.133333 14.933333 34.133333 34.133333s-14.933333 34.133333-34.133333 34.133333z" p-id="3338" fill="#ffffff"></path></svg>