<?xml version="1.0" standalone="no"?><!DOCTYPE svg PUBLIC "-//W3C//DTD SVG 1.1//EN" "http://www.w3.org/Graphics/SVG/1.1/DTD/svg11.dtd"><svg t="1533301177735" class="icon" style="" viewBox="0 0 1024 1024" version="1.1" xmlns="http://www.w3.org/2000/svg" p-id="92087" xmlns:xlink="http://www.w3.org/1999/xlink" width="64" height="64"><defs><style type="text/css"></style></defs><path d="M929.536 385.664l-267.008-38.912-119.232-242.56L543.232 104.128c-13.44-27.2-48.256-27.136-61.696 0l-119.424 242.56L94.464 385.472c-29.952 4.288-40.832 37.504-19.2 58.688l193.344 188.416-45.44 266.816c-5.12 29.696 22.976 50.368 49.792 36.288l0-0.128c79.936-42.048 159.488-84.48 239.36-126.528l239.36 126.528c27.2 14.4 54.912-6.912 49.92-36.16l-46.336-266.816 193.28-188.224C970.368 423.232 959.552 389.952 929.536 385.664z" p-id="92088" fill="#ed172e"></path></svg>