<?xml version="1.0" standalone="no"?><!DOCTYPE svg PUBLIC "-//W3C//DTD SVG 1.1//EN" "http://www.w3.org/Graphics/SVG/1.1/DTD/svg11.dtd"><svg t="1533177746577" class="icon" style="" viewBox="0 0 1024 1024" version="1.1" xmlns="http://www.w3.org/2000/svg" p-id="12693" xmlns:xlink="http://www.w3.org/1999/xlink" width="200" height="200"><defs><style type="text/css"></style></defs><path d="M729.445663 778.795354a440.617679 440.617679 0 0 1-287.097302 105.814333C198.046873 884.609687 0.008611 686.571426 0.008611 442.293208 0.008611 198.038262 198.046873 0 442.348361 0s442.339751 198.038262 442.339751 442.293208a440.524594 440.524594 0 0 1-105.860876 287.120573l234.806823 234.806822c13.660219 13.660219 13.776575 35.698084 0.046542 49.428116a34.790505 34.790505 0 0 1-49.451387-0.046542l-234.806822-234.806823z m-287.097302 35.977339c205.717771 0 372.502756-166.761714 372.502757-372.479485S648.066133 69.836995 442.348361 69.836995c-205.717771 0-372.502756 166.761714-372.502756 372.456213 0 205.717771 166.784985 372.479485 372.502756 372.479485z" fill="#707070" p-id="12694"></path></svg>