<?xml version="1.0" standalone="no"?><!DOCTYPE svg PUBLIC "-//W3C//DTD SVG 1.1//EN" "http://www.w3.org/Graphics/SVG/1.1/DTD/svg11.dtd"><svg t="1533207854273" class="icon" style="" viewBox="0 0 1024 1024" version="1.1" xmlns="http://www.w3.org/2000/svg" p-id="49806" xmlns:xlink="http://www.w3.org/1999/xlink" width="64" height="64"><defs><style type="text/css"></style></defs><path d="M471.051599 779.727506h-49.980827a23.806489 23.806489 0 0 0-23.806489 23.806488v86.202529a23.806489 23.806489 0 0 0 23.806489 23.806488h49.980827a23.806489 23.806489 0 0 0 23.806489-23.806488V803.533994a23.806489 23.806489 0 0 0-23.806489-23.806488z m131.895628 0h-49.916831a23.806489 23.806489 0 0 0-23.870485 23.806488v86.202529a23.806489 23.806489 0 0 0 23.806489 23.806488h49.980827a23.806489 23.806489 0 0 0 23.806489-23.806488V803.533994a23.806489 23.806489 0 0 0-23.806489-23.806488zM896.368602 1024H127.649397a55.164498 55.164498 0 0 1 0-110.392993h27.326266V757.648907l-0.447972 0.31998c-53.692592-28.862168-84.858613-69.115613-13.055171-104.953338a282.798049 282.798049 0 0 1 50.556791-18.558822v-101.113582l-0.447972 0.255984c-48.124945-25.918355-76.027174-61.884072-11.711257-94.074029a354.281511 354.281511 0 0 1 91.258208-26.942289v-87.930419l-0.255984 0.191988c-36.221701-19.518761-57.276364-46.589043-8.831439-70.779507a247.088316 247.088316 0 0 1 59.836201-18.558822 358.953215 358.953215 0 0 0 161.269763-89.210337V28.863168a28.798172 28.798172 0 1 1 57.724336 0v117.36855a358.889219 358.889219 0 0 0 161.269764 89.146341 247.02432 247.02432 0 0 1 59.836201 18.558822c48.444925 24.318456 27.390261 51.388738-8.959431 70.907499l-0.127992-0.383976v88.058411a354.537495 354.537495 0 0 1 91.258207 26.94229c64.379913 32.189957 36.349693 68.21967-11.839248 94.138024l-0.255984-0.447972v101.241574a283.374012 283.374012 0 0 1 50.556791 18.558822c71.803442 35.901721 40.509429 76.155166-13.247159 105.017334l-0.31998-0.511968V913.607007h27.326266a55.164498 55.164498 0 0 1 0 110.328997z" p-id="49807" data-spm-anchor-id="a313x.7781069.0.i38" fill="#3c84c0" class=""></path></svg>