<?xml version="1.0" standalone="no"?><!DOCTYPE svg PUBLIC "-//W3C//DTD SVG 1.1//EN" "http://www.w3.org/Graphics/SVG/1.1/DTD/svg11.dtd"><svg t="1533301541203" class="icon" style="" viewBox="0 0 1024 1024" version="1.1" xmlns="http://www.w3.org/2000/svg" p-id="97100" xmlns:xlink="http://www.w3.org/1999/xlink" width="64" height="64"><defs><style type="text/css"></style></defs><path d="M85.6 516.7c0-233 192.9-425.9 425.8-425.9 235.5 0 425.9 190.4 425.9 425.9 0 235.5-192.9 425.9-425.9 425.9-232.9-0.1-425.8-192.9-425.8-425.9z m426.5 64.6V325.4c0-11.8-9.5-21.3-21.3-21.3h-0.1c-11.8 0-21.3 9.5-21.3 21.3V602.7c0 5.9 2.4 11.2 6.2 15.1 3.9 3.9 9.2 6.2 15.1 6.2H768c11.8 0 21.3-9.5 21.3-21.3v-0.1c0-11.8-9.5-21.3-21.3-21.3H512.1z" p-id="97101" fill="#0e9d95"></path></svg>