<?xml version="1.0" standalone="no"?><!DOCTYPE svg PUBLIC "-//W3C//DTD SVG 1.1//EN" "http://www.w3.org/Graphics/SVG/1.1/DTD/svg11.dtd"><svg t="1533301804636" class="icon" style="" viewBox="0 0 1024 1024" version="1.1" xmlns="http://www.w3.org/2000/svg" p-id="105378" xmlns:xlink="http://www.w3.org/1999/xlink" width="64" height="64"><defs><style type="text/css"></style></defs><path d="M512 373.056c-122.464 0-242.624-32.96-302.72-51.808-41.568-11.776-80.832-25.92-113.184-44.736v605.216c0 77.696 62.4 141.28 138.624 141.28h554.56c76.256 0 138.624-63.584 138.624-141.28V276.48c-27.712 14.144-62.4 28.256-113.216 44.736-60.064 21.216-180.224 51.84-302.688 51.84z m120.16 273.184v37.664h-76.256v32.96h76.256v37.696h-76.256v70.624H491.2V754.56H414.944v-37.696h76.256v-32.96H414.944v-37.664h57.76L384.96 481.376h71.616l67.008 138.944 67.008-138.944h71.616l-87.776 164.864h57.76zM789.28 0.96c76.256 0 138.624 63.584 138.624 141.28v49.472c0 21.184-221.824 113.024-415.904 113.024C317.92 304.768 96.096 212.928 96.096 191.744V142.272c0-77.696 62.4-141.28 138.624-141.28h554.56z" p-id="105379" data-spm-anchor-id="a313x.7781069.0.i118" class="" fill="#e0620d"></path></svg>