<?xml version="1.0" standalone="no"?><!DOCTYPE svg PUBLIC "-//W3C//DTD SVG 1.1//EN" "http://www.w3.org/Graphics/SVG/1.1/DTD/svg11.dtd"><svg t="1533289616090" class="icon" style="" viewBox="0 0 1024 1024" version="1.1" xmlns="http://www.w3.org/2000/svg" p-id="52976" xmlns:xlink="http://www.w3.org/1999/xlink" width="64" height="64"><defs><style type="text/css"></style></defs><path d="M544.512 707.264h85.76a17.28 17.28 0 0 0 16.896-17.408V601.856c0-9.6-7.68-17.344-16.896-17.344h-85.76a17.152 17.152 0 0 0-16.896 17.344v87.936c0 9.6 7.616 17.472 16.896 17.472zM393.792 401.472h85.76a17.28 17.28 0 0 0 16.896-17.408V296.192a17.216 17.216 0 0 0-16.896-17.408h-85.76a17.152 17.152 0 0 0-16.832 17.408v87.872a17.28 17.28 0 0 0 16.832 17.408zM544.512 401.472h85.76a17.28 17.28 0 0 0 16.896-17.408V296.192a17.28 17.28 0 0 0-16.896-17.408h-85.76a17.216 17.216 0 0 0-16.896 17.408v87.872a17.28 17.28 0 0 0 16.896 17.408zM544.512 554.368h85.76a17.28 17.28 0 0 0 16.896-17.344V449.024a17.28 17.28 0 0 0-16.896-17.408h-85.76a17.28 17.28 0 0 0-16.896 17.408v88a17.28 17.28 0 0 0 16.896 17.344z" p-id="52977" fill="#622903"></path><path d="M512 0a512 512 0 1 0 0 1024A512 512 0 0 0 512 0z m273.792 790.208H238.336a36.48 36.48 0 1 1 0-73.024H304v-426.24c0-31.552 25.536-57.088 57.088-57.088h301.888a56.96 56.96 0 0 1 57.088 57.088v426.24h65.792a36.48 36.48 0 1 1-0.064 73.024z" p-id="52978" fill="#622903"></path><path d="M393.792 554.368h85.76a17.28 17.28 0 0 0 16.896-17.344V449.024a17.28 17.28 0 0 0-16.896-17.408h-85.76a17.216 17.216 0 0 0-16.832 17.408v88a17.28 17.28 0 0 0 16.832 17.344zM393.792 707.264h85.76a17.28 17.28 0 0 0 16.896-17.408V601.856a17.152 17.152 0 0 0-16.896-17.344h-85.76a17.088 17.088 0 0 0-16.832 17.344v87.936a17.28 17.28 0 0 0 16.832 17.472z" p-id="52979" fill="#622903"></path></svg>