<?xml version="1.0" standalone="no"?><!DOCTYPE svg PUBLIC "-//W3C//DTD SVG 1.1//EN" "http://www.w3.org/Graphics/SVG/1.1/DTD/svg11.dtd"><svg t="1533302439057" class="icon" style="" viewBox="0 0 1024 1024" version="1.1" xmlns="http://www.w3.org/2000/svg" p-id="131376" xmlns:xlink="http://www.w3.org/1999/xlink" width="64" height="64"><defs><style type="text/css"></style></defs><path d="M819.2 388.266667c-68.266667 0-136.533333 0-204.8 0-8.533333 0-11.377778 2.844444-11.377778 11.377778 0 36.977778 0 73.955556 0 112.355556 0 36.977778 0 73.955556 0 110.933333 0 11.377778 2.844444 12.8 12.8 12.8 66.844444 0 133.688889 0 199.111111 0 12.8 0 17.066667-4.266667 17.066667-15.644444 0-72.533333 0-146.488889 0-219.022222C830.577778 389.688889 827.733333 388.266667 819.2 388.266667zM800.711111 473.6c-1.422222 0-4.266667 0-5.688889 0-19.911111 0-18.488889-2.844444-18.488889 18.488889 0 31.288889 0 62.577778 0 93.866667 0 25.6-8.533333 35.555556-34.133333 38.4-12.8 1.422222-27.022222 0-39.822222 0-5.688889 0-8.533333-2.844444-8.533333-8.533333 0-1.422222 0-1.422222 0-2.844444 0-22.755556 0-22.755556 21.333333-22.755556 22.755556-1.422222 25.6-4.266667 25.6-25.6 0-22.755556 0-45.511111 0-71.111111-29.866667 45.511111-69.688889 75.377778-113.777778 103.822222 0-14.222222 0-27.022222 0-38.4 0-7.111111 5.688889-8.533333 9.955556-11.377778 28.444444-19.911111 54.044444-41.244444 73.955556-72.533333-29.866667 0-56.888889 0-83.911111 0-9.955556 0-14.222222-1.422222-14.222222-12.8 1.422222-22.755556 0-22.755556 22.755556-22.755556 31.288889 0 62.577778 0 93.866667 0 9.955556 0 12.8-2.844444 11.377778-11.377778 0-2.844444 0-7.111111 0-9.955556 0-19.911111-4.266667-18.488889 18.488889-18.488889 12.8 0 17.066667 2.844444 15.644444 15.644444-1.422222 5.688889 0 11.377778 0 17.066667 0 5.688889 1.422222 8.533333 8.533333 8.533333 5.688889 0 11.377778 1.422222 17.066667 0 15.644444-2.844444 17.066667 4.266667 17.066667 17.066667C819.2 470.755556 814.933333 476.444444 800.711111 473.6z" p-id="131377" fill="#0e9d95"></path><path d="M512 0c-283.022222 0-512 228.977778-512 512s228.977778 512 512 512 512-228.977778 512-512S795.022222 0 512 0zM159.288889 513.422222c1.422222-22.755556-2.844444-19.911111 19.911111-19.911111 38.4 0 75.377778 0 113.777778 0 8.533333 0 14.222222 1.422222 14.222222-11.377778 0-12.8-5.688889-11.377778-15.644444-11.377778-31.288889 0-64 0-95.288889 0-9.955556 0-14.222222-2.844444-12.8-12.8 0-2.844444 0-7.111111 0-9.955556-1.422222-8.533333 1.422222-12.8 11.377778-11.377778 32.711111 0 65.422222 0 98.133333 0 8.533333 0 12.8 0 12.8-11.377778 0-9.955556-4.266667-12.8-12.8-11.377778-36.977778 0-72.533333 0-109.511111 0-21.333333 0-17.066667 2.844444-18.488889-18.488889-1.422222-11.377778 2.844444-15.644444 15.644444-14.222222 21.333333 1.422222 42.666667 0 66.844444 0-9.955556-14.222222-17.066667-24.177778-22.755556-39.822222 12.8 0 24.177778 0 34.133333 0 2.844444 0 5.688889 1.422222 7.111111 4.266667 1.422222 2.844444 2.844444 4.266667 2.844444 5.688889 12.8 19.911111 27.022222 35.555556 54.044444 29.866667 2.844444 0 4.266667 0 7.111111 0 25.6 5.688889 41.244444-8.533333 51.2-27.022222 5.688889-9.955556 12.8-14.222222 22.755556-12.8 7.111111 1.422222 14.222222 0 22.755556 0-4.266667 15.644444-12.8 25.6-22.755556 39.822222 24.177778 0 45.511111 0 68.266667 0 9.955556 0 12.8 2.844444 12.8 12.8 0 21.333333 0 21.333333-21.333333 21.333333-35.555556 0-72.533333 0-108.088889 0-9.955556 0-11.377778 2.844444-11.377778 12.8 0 8.533333 2.844444 11.377778 11.377778 11.377778 32.711111 0 65.422222 0 98.133333 0 9.955556 0 15.644444 2.844444 12.8 12.8 0 1.422222 0 4.266667 0 5.688889 2.844444 14.222222-4.266667 15.644444-15.644444 15.644444-29.866667-1.422222-59.733333 0-89.6 0-7.111111 0-17.066667-4.266667-17.066667 11.377778 0 14.222222 8.533333 11.377778 17.066667 11.377778 38.4 0 78.222222 0 116.622222 0 9.955556 0 14.222222 1.422222 14.222222 12.8-1.422222 21.333333 0 21.333333-21.333333 21.333333-99.555556 0-197.688889 0-297.244444 0C162.133333 527.644444 159.288889 524.8 159.288889 513.422222zM470.755556 679.822222c-58.311111-5.688889-106.666667-27.022222-143.644444-73.955556-39.822222 55.466667-98.133333 66.844444-159.288889 75.377778-8.533333 1.422222-11.377778-1.422222-9.955556-9.955556 0-8.533333-2.844444-18.488889 1.422222-25.6 4.266667-7.111111 14.222222-2.844444 22.755556-4.266667 22.755556-4.266667 44.088889-9.955556 65.422222-18.488889 17.066667-7.111111 29.866667-19.911111 41.244444-35.555556-27.022222 0-52.622222 0-76.8 0-14.222222 0-27.022222 0-41.244444 0-7.111111 0-9.955556-2.844444-9.955556-9.955556-1.422222-25.6-1.422222-25.6 24.177778-25.6 34.133333 0 69.688889 0 103.822222 0 9.955556 0 15.644444-1.422222 15.644444-12.8 0-7.111111 2.844444-9.955556 9.955556-8.533333 4.266667 0 9.955556 0 14.222222 0 9.955556-1.422222 18.488889 0 15.644444 14.222222-1.422222 9.955556 7.111111 7.111111 11.377778 7.111111 39.822222 0 79.644444 0 119.466667 0 11.377778 0 17.066667 2.844444 14.222222 14.222222 0 2.844444 0 7.111111 0 9.955556 1.422222 8.533333-2.844444 11.377778-11.377778 11.377778-36.977778 0-73.955556 0-110.933333 0-2.844444 0-4.266667 0-8.533333 0 22.755556 32.711111 55.466667 42.666667 89.6 51.2 11.377778 2.844444 22.755556 4.266667 34.133333 5.688889 8.533333 0 11.377778 4.266667 11.377778 11.377778C494.933333 681.244444 494.933333 682.666667 470.755556 679.822222zM867.555556 648.533333c0 21.333333-5.688889 27.022222-27.022222 27.022222-86.755556 0-174.933333 0-261.688889 0-11.377778 0-12.8-2.844444-12.8-12.8 0-49.777778 0-99.555556 0-149.333333 0-49.777778 0-99.555556 0-147.911111 0-9.955556 1.422222-14.222222 12.8-14.222222 92.444444 0 184.888889 0 275.911111 0 11.377778 0 12.8 4.266667 12.8 14.222222C867.555556 457.955556 867.555556 553.244444 867.555556 648.533333z" p-id="131378" data-spm-anchor-id="a313x.7781069.0.i147" fill="#0e9d95" class="selected"></path></svg>