<?xml version="1.0" standalone="no"?><!DOCTYPE svg PUBLIC "-//W3C//DTD SVG 1.1//EN" "http://www.w3.org/Graphics/SVG/1.1/DTD/svg11.dtd"><svg t="1533206570003" class="icon" style="" viewBox="0 0 1024 1024" version="1.1" xmlns="http://www.w3.org/2000/svg" p-id="40031" xmlns:xlink="http://www.w3.org/1999/xlink" width="64" height="64"><defs><style type="text/css"></style></defs><path d="M512 0c281.6 0 512 230.4 512 512s-230.4 512-512 512S0 793.6 0 512 230.4 0 512 0z" fill="#FFC400" p-id="40032"></path><path d="M149.333333 409.6s59.733333 25.6 115.2 21.333333c55.466667-4.266667 132.266667-42.666667 209.066667-38.4 76.8 4.266667 123.733333 17.066667 174.933333 29.866667 46.933333 12.8 68.266667 4.266667 72.533334 0 4.266667-4.266667 8.533333-25.6-12.8-25.6s-68.266667 8.533333-64-21.333333c0-34.133333 55.466667-34.133333 93.866666-21.333334 0 0-4.266667-17.066667-25.6-17.066666s-34.133333-4.266667-34.133333-17.066667c4.266667-21.333333 21.333333-29.866667 46.933333-12.8 21.333333 12.8 29.866667 29.866667 42.666667 51.2 0 0 68.266667 17.066667 110.933333 51.2 0 0 34.133333 29.866667 0 42.666667-34.133333 12.8-38.4-8.533333-102.4 21.333333s-128 76.8-140.8 89.6c-12.8 17.066667-17.066667 21.333333-8.533333 29.866667 8.533333 8.533333 4.266667 21.333333 0 25.6-4.266667 8.533333-42.666667 38.4-76.8 51.2-34.133333 12.8-85.333333 25.6-98.133333 25.6 0 0 72.533333 8.533333 76.8 64s-8.533333 51.2-8.533334 51.2-93.866667-102.4-162.133333-106.666667-8.533333-85.333333 51.2-132.266667c0 0-25.6 8.533333-46.933333 29.866667 0 0-25.6-29.866667-8.533334-93.866667 0 0-132.266667 8.533333-221.866666-76.8-4.266667-8.533333-12.8-34.133333 17.066666-21.333333z" fill="#FFFFFF" p-id="40033"></path></svg>