<?xml version="1.0" standalone="no"?><!DOCTYPE svg PUBLIC "-//W3C//DTD SVG 1.1//EN" "http://www.w3.org/Graphics/SVG/1.1/DTD/svg11.dtd"><svg t="1533204409744" class="icon" style="" viewBox="0 0 1024 1024" version="1.1" xmlns="http://www.w3.org/2000/svg" p-id="11737" xmlns:xlink="http://www.w3.org/1999/xlink" width="64" height="64"><defs><style type="text/css"></style></defs><path d="M512 0c-282.8288 0-512 229.1712-512 512s229.1712 512 512 512 512-229.1712 512-512-229.1712-512-512-512zM182.0672 321.7408c-3.072-20.2752 0.6144-39.5264 14.336-54.6816 0.2048-0.2048 0.2048-0.4096 0.4096-0.6144 16.1792-20.2752 38.2976-26.2144 62.2592-22.7328 56.1152 8.192 102.6048 34.2016 135.168 81.1008 19.6608 28.4672 24.3712 60.0064 9.4208 92.7744-2.2528 4.7104-0.6144 7.3728 2.6624 10.4448 24.7808 23.3472 49.3568 46.6944 73.9328 70.0416 7.5776 7.168 7.7824 6.9632 0.4096 14.1312-10.0352 9.6256-20.6848 19.0464-30.3104 29.0816l-1.024 1.024c-0.2048 0-0.2048 0.2048-0.4096 0.2048-0.2048 0.2048-0.4096 0.4096-0.6144 0.4096-0.2048 0.2048-0.2048 0.2048-0.4096 0.2048-0.2048 0.2048-0.4096 0.2048-0.4096 0.4096-0.2048 0-0.2048 0.2048-0.4096 0.2048s-0.2048 0.2048-0.4096 0.2048-0.2048 0.2048-0.4096 0.2048-0.2048 0.2048-0.4096 0.2048-0.2048 0.2048-0.4096 0.2048h-0.4096c-0.2048 0-0.2048 0-0.4096 0.2048h-0.8192-0.2048c-0.6144 0-1.2288-0.2048-1.8432-0.4096-0.2048 0-0.4096-0.2048-0.6144-0.2048h-0.2048c-0.2048 0-0.4096-0.2048-0.6144-0.4096h-0.2048c-0.2048-0.2048-0.4096-0.2048-0.6144-0.4096l-0.2048-0.2048c-0.2048-0.2048-0.4096-0.4096-0.6144-0.4096-0.4096-0.2048-0.6144-0.6144-1.024-0.8192l-0.4096-0.4096-0.6144-0.6144c-0.4096-0.4096-0.8192-0.8192-1.2288-1.4336-22.7328-23.7568-45.4656-47.3088-67.9936-71.0656-3.072-3.2768-5.7344-4.7104-10.4448-2.6624-32.5632 15.1552-64.1024 10.8544-92.7744-8.8064-47.5136-32.768-73.728-79.2576-82.1248-135.168z m558.8992 441.9584c-4.5056 11.0592-11.8784 21.0944-21.0944 28.672-7.5776 6.3488-18.432 14.1312-28.8768 10.8544h-0.2048c-6.3488-2.048-11.4688-6.7584-16.384-11.4688-20.0704-20.2752-39.1168-41.7792-58.7776-62.6688-21.504-22.528-42.8032-45.2608-64.3072-67.7888-7.5776-7.9872-14.9504-15.7696-22.528-23.7568-7.3728-7.7824-7.3728-7.5776 0-15.1552 10.8544-11.264 21.9136-22.3232 32.1536-33.9968 5.3248-6.144 9.0112-5.3248 14.336-0.2048 22.7328 21.9136 45.6704 43.4176 68.4032 65.1264 30.72 29.0816 61.2352 58.368 92.16 87.2448 7.5776 6.7584 8.6016 14.336 5.12 23.1424z m103.2192-428.2368c-7.3728 16.9984-19.0464 31.1296-31.5392 44.6464-20.6848 22.3232-40.7552 45.2608-64.7168 64.1024-27.4432 21.504-58.368 29.696-92.3648 16.5888-4.5056-1.6384-6.9632 0.2048-9.6256 3.072-43.6224 46.08-87.4496 92.16-131.2768 138.24-35.84 37.6832-71.4752 75.3664-107.3152 113.0496-25.8048 27.2384-51.6096 54.272-77.2096 81.5104-3.2768 3.4816-6.9632 5.7344-11.264 7.3728h-1.4336c-22.528-4.7104-37.6832-18.6368-47.104-39.1168-5.3248-11.6736-4.3008-16.384 4.9152-25.1904 102.6048-97.4848 205.4144-194.7648 308.0192-292.2496 7.5776-7.168 15.1552-14.5408 22.7328-21.9136 2.6624-2.6624 4.3008-5.12 2.4576-9.216-17.408-37.4784-8.6016-71.8848 16.5888-101.376 24.9856-29.0816 52.8384-55.9104 82.7392-80.2816 6.3488-5.3248 13.312-10.24 21.0944-13.312 8.6016-3.4816 15.5648-2.6624 23.552 1.4336 11.0592 5.7344 11.0592 6.144 2.6624 14.9504l-64.512 66.9696c-6.7584 6.9632-13.5168 13.9264-19.8656 21.2992-5.12 5.9392-4.7104 11.264 0.6144 16.1792 5.5296 4.9152 10.24 4.3008 18.432-2.6624l87.8592-74.9568c14.9504-12.6976 10.4448-11.4688 24.3712 1.2288 4.7104 4.3008 5.12 7.3728 0.6144 12.4928-27.0336 31.3344-53.8624 63.0784-80.6912 94.6176-6.3488 7.5776-6.7584 13.1072-1.4336 18.432 5.3248 5.12 11.0592 4.5056 18.2272-2.4576 26.624-25.3952 53.248-50.9952 79.872-76.5952 15.9744-15.36 15.9744-15.5648 25.3952 4.9152 2.8672 7.3728 2.048 12.6976 0.2048 18.2272z" fill="#e0600a" p-id="11738"></path></svg>