<?xml version="1.0" standalone="no"?><!DOCTYPE svg PUBLIC "-//W3C//DTD SVG 1.1//EN" "http://www.w3.org/Graphics/SVG/1.1/DTD/svg11.dtd"><svg t="1533365587072" class="icon" style="" viewBox="0 0 1024 1024" version="1.1" xmlns="http://www.w3.org/2000/svg" p-id="7082" data-spm-anchor-id="a313x.7781069.0.i26" xmlns:xlink="http://www.w3.org/1999/xlink" width="64" height="64"><defs><style type="text/css"></style></defs><path d="M955.181146 174.654683c0-2.658678 0-5.112842-0.204513-7.771519-1.636109-45.811065-33.540244-86.10026-78.32874-95.303376-18.815259-3.88576-38.857599-2.863192-58.286399-3.067705-19.224286-0.204514-34.153785 15.54304-33.949271 34.153785 0.204514 18.815259 15.338526 33.540244 34.767326 33.540243 11.248252 0 22.701019-0.204514 33.949271 0 11.043739 0.204514 20.042341 4.703815 26.791292 13.497903 5.930897 7.77152 7.157979 16.565608 7.157979 25.973238v740.748552c0 23.519073-13.90693 37.835031-37.016977 37.835031H173.529858c-22.291991 0-36.607949-14.520471-36.607949-36.812463V172.200519c0-22.087478 14.315958-36.403435 36.198922-36.607949 11.248252 0 22.701019 0.204514 33.949271-0.204513 17.383663-0.613541 31.290593-14.724985 32.108648-32.517676 0.818055-17.179149-11.452766-33.744757-28.427402-34.767325-17.79269-1.227082-35.994408-1.840623-53.582584 0.613541-53.173557 7.567006-88.145396 49.696824-88.34991 103.483922v746.679449c0 58.081885 45.197523 103.279409 102.870381 103.279409h680.826044c14.724985 0 29.245456-2.658678 42.538845-9.203116 40.289195-19.837827 60.331536-52.560016 60.331536-97.348512-0.204514-246.438985-0.204514-493.696026-0.204514-740.953066z m0 0" p-id="7083" fill="#000000"></path><path d="M379.066107 204.513681h132.933893c45.811065 0 91.417615 0.409027 137.22868-0.204514 38.244058-0.409027 66.875974-30.268025 67.080487-68.512083 0.204514-21.882964 0-43.765928 0-65.648891 0-40.493709-29.44997-69.943679-70.148192-69.943679H377.429998c-41.10725 0-70.148193 29.040943-70.352706 70.352706v62.172159c0.204514 43.152387 28.836429 71.579788 71.988815 71.784302z m-3.067705-135.797084h272.003196V135.797084h-272.003196V68.716597z m0 0" p-id="7084" fill="#000000"></path><path d="M309.940483 545.437987c-2.658678 0-5.112842 0.204514-7.77152 0.613541-14.111444 2.24965-23.723587 10.430198-27.609346 24.132614-3.88576 13.702417-0.409027 25.56421 10.430197 35.176353 7.362493 6.748951 16.565608 8.385061 26.177751 8.385061H710.37827c4.294787 0 8.589575-0.204514 12.679849-0.818055 14.520471-2.454164 26.177751-15.54304 27.200319-30.268024 1.431596-21.473936-13.90693-37.016976-36.812462-37.016977-134.570002-0.204514-268.93549-0.204514-403.505493-0.204513z m0 0M307.690833 784.105452h332.130218c25.768724 0 51.332934 0.204514 77.101657 0 18.815259-0.204514 33.33573-15.134012 33.33573-33.949271 0-19.837827-15.134012-33.949271-36.403435-33.949271H308.304374c-11.248252 0-20.860395 3.88576-27.813861 12.884362-8.589575 11.043739-10.02117 23.31456-4.090273 35.789894 6.339924 12.679848 16.974636 19.224286 31.290593 19.224286z m0 0M307.895347 443.181146c60.331536 0.204514 120.663072 0 180.994607 0h90.395047c16.565608 0 30.063511-10.634711 33.744757-25.973237 5.112842-21.882964-10.634711-41.925305-33.540243-42.129818-45.197523-0.204514-90.395047 0-135.592571 0h-135.59257c-15.54304 0-27.813861 8.589575-32.926703 22.087477-8.589575 22.701019 7.976034 45.811065 32.517676 46.015578z m0 0" p-id="7085" fill="#000000"></path></svg>