<?xml version="1.0" standalone="no"?><!DOCTYPE svg PUBLIC "-//W3C//DTD SVG 1.1//EN" "http://www.w3.org/Graphics/SVG/1.1/DTD/svg11.dtd"><svg t="1533366323083" class="icon" style="" viewBox="0 0 1024 1024" version="1.1" xmlns="http://www.w3.org/2000/svg" p-id="19870" xmlns:xlink="http://www.w3.org/1999/xlink" width="64" height="64"><defs><style type="text/css"></style></defs><path d="M410.344762 158.641113l212.785268 0c22.418592 0 41.331337-20.786419 41.331337-46.508243 0.002047-25.663496-18.85544-46.39261-42.557258-46.39261l-211.559347 0c-23.584138 0-42.441625 20.729114-42.441625 46.39261S386.817929 158.641113 410.344762 158.641113L410.344762 158.641113M910.557298 838.838883c0-47.166229-0.611937-111.272269 0-163.989935L910.557298 206.306716c0-63.041802-20.172435-90.844008-92.210122-90.844008l-95.915513 0c0.934279 5.052063 1.517563 10.219759 1.517563 15.445784 0.060375 39.043225-28.662807 77.452-62.754253 77.452l-294.575062 0c-35.902698 0-64.623833-38.408775-64.623833-77.452 0.058328-5.167696 0.64059-10.393721 1.575892-15.445784l-97.082082 0c-77.993329 0-97.139387 43.636846-97.139387 106.678648L109.3505 846.082868c0 67.695798 18.661012 109.889783 94.259804 109.889783l518.42841 0c29.306466-1.542122 53.487192 0 94.259804 0C897.501958 955.972651 910.557298 886.005113 910.557298 838.838883zM314.079278 352.418468l415.765215 0c15.35471 0 28.313859 14.125719 29.482475 30.432103 0 15.216563-16.112979 31.520901-31.465642 31.520901l-416.935877 0c-15.412015 0-25.160029-16.304338-25.160029-31.520901C285.765419 367.636055 298.725592 352.418468 314.079278 352.418468L314.079278 352.418468M501.295194 764.14981l-190.369745 0c-15.412015 0-25.160029-16.304338-25.160029-31.520901 0-15.216563 12.95915-30.374798 28.313859-30.374798l189.20113 0c15.412015 0 28.371164 14.012132 29.53978 30.374798C532.821211 747.845473 516.649903 764.14981 501.295194 764.14981L501.295194 764.14981M309.174572 591.9591c-15.35471 0-30.706349-18.60166-30.706349-33.8172 0-15.158235 12.95915-28.075429 28.372188-28.075429l415.765215 0c15.35471 0 28.313859 11.769045 29.53978 28.075429 0 15.216563-10.622942 33.8172-25.976628 33.8172L309.174572 591.9591 309.174572 591.9591M309.174572 591.9591" p-id="19871" data-spm-anchor-id="a313x.7781069.0.i45" fill="#0e9d95" class="selected"></path></svg>