<?xml version="1.0" standalone="no"?><!DOCTYPE svg PUBLIC "-//W3C//DTD SVG 1.1//EN" "http://www.w3.org/Graphics/SVG/1.1/DTD/svg11.dtd"><svg t="1533301475189" class="icon" style="" viewBox="0 0 1024 1024" version="1.1" xmlns="http://www.w3.org/2000/svg" p-id="96632" xmlns:xlink="http://www.w3.org/1999/xlink" width="64" height="64"><defs><style type="text/css"></style></defs><path d="M511.996418 78.422094C267.711739 78.422094 69.680501 249.137197 69.680501 459.730543c0 305.656445 274.543843 362.311793 442.315918 485.896482 178.672332-149.736303 442.323081-175.882799 442.323081-485.896482C954.319499 249.137197 756.284167 78.422094 511.996418 78.422094L511.996418 78.422094zM304.217165 559.176462c-49.774637 0-90.11746-40.349987-90.11746-90.118484 0-49.773613 40.343847-90.11746 90.11746-90.11746 49.770544 0 90.118484 40.34487 90.118484 90.11746C394.335648 518.826476 353.987708 559.176462 304.217165 559.176462L304.217165 559.176462zM527.861758 559.176462c-49.77566 0-90.118484-40.349987-90.118484-90.118484 0-49.773613 40.343847-90.11746 90.118484-90.11746 49.768497 0 90.11746 40.34487 90.11746 90.11746C617.979218 518.826476 577.630255 559.176462 527.861758 559.176462L527.861758 559.176462zM742.174821 559.176462c-49.773613 0-90.11746-40.349987-90.11746-90.118484 0-49.773613 40.349987-90.11746 90.11746-90.11746 49.774637 0 90.118484 40.34487 90.118484 90.11746C832.294328 518.826476 791.949458 559.176462 742.174821 559.176462L742.174821 559.176462z" p-id="96633" fill="#045eaa"></path></svg>