<?xml version="1.0" standalone="no"?><!DOCTYPE svg PUBLIC "-//W3C//DTD SVG 1.1//EN" "http://www.w3.org/Graphics/SVG/1.1/DTD/svg11.dtd"><svg t="1533298181620" class="icon" style="" viewBox="0 0 1024 1024" version="1.1" xmlns="http://www.w3.org/2000/svg" p-id="59918" xmlns:xlink="http://www.w3.org/1999/xlink" width="64" height="64"><defs><style type="text/css"></style></defs><path d="M874.666667 258.133333c-10.666667-12.8-34.133333-17.066667-46.933334-6.4-12.8 10.666667-17.066667 34.133333-6.4 46.933334 40.533333 57.6 59.733333 128 59.733334 209.066666 0 49.066667-10.666667 96-29.866667 140.8-12.8-2.133333-21.333333-2.133333-36.266667-2.133333-91.733333 0-162.133333 66.133333-162.133333 147.2 0 12.8 2.133333 29.866667 6.4 44.8-40.533333 17.066667-83.2 27.733333-125.866667 27.733333-19.2 0-34.133333 17.066667-34.133333 34.133334s17.066667 34.133333 34.133333 34.133333c64-2.133333 123.733333-17.066667 181.333334-46.933333 10.666667-2.133333 12.8-12.8 17.066666-19.2 2.133333-10.666667 0-19.2-2.133333-27.733334-10.666667-12.8-12.8-27.733333-12.8-40.533333 0-44.8 44.8-81.066667 96-81.066667 12.8 0 27.733333 2.133333 40.533333 6.4 17.066667 6.4 34.133333 0 44.8-17.066666 34.133333-59.733333 49.066667-130.133333 49.066667-198.4 2.133333-98.133333-21.333333-185.6-72.533333-251.733334zM170.666667 710.4c17.066667-10.666667 21.333333-29.866667 12.8-44.8-27.733333-53.333333-40.533333-104.533333-40.533334-157.866667C142.933333 309.333333 305.066667 149.333333 501.333333 149.333333c21.333333 0 53.333333 2.133333 68.266667 6.4 17.066667 2.133333 36.266667-10.666667 40.533333-27.733333s-6.4-36.266667-25.6-40.533333c-21.333333-2.133333-57.6-6.4-83.2-6.4-234.666667 0-424.533333 189.866667-424.533333 424.533333 0 66.133333 12.8 123.733333 46.933333 187.733333 6.4 10.666667 19.2 17.066667 29.866667 17.066667 8.533333 2.133333 12.8 2.133333 17.066667 0z" p-id="59919" fill="#ffffff"></path><path d="M262.4 428.8z m-51.2 0c0 27.733333 21.333333 49.066667 49.066667 49.066667s49.066667-21.333333 49.066666-49.066667c0-27.733333-21.333333-49.066667-49.066666-49.066667s-49.066667 21.333333-49.066667 49.066667M345.6 277.333333z m-34.133333 0c0 17.066667 14.933333 34.133333 34.133333 34.133334 17.066667 0 34.133333-14.933333 34.133333-34.133334 0-17.066667-14.933333-34.133333-34.133333-34.133333-19.2 0-34.133333 17.066667-34.133333 34.133333M526.933333 712.533333L838.4 130.133333c10.666667-27.733333 2.133333-59.733333-21.333333-76.8-27.733333-17.066667-61.866667-12.8-81.066667 14.933334L326.4 586.666667s0 2.133333-2.133333 2.133333c-10.666667 17.066667-12.8 36.266667-10.666667 53.333333 0 2.133333 2.133333 6.4 2.133333 10.666667-44.8 2.133333-106.666667 27.733333-121.6 93.866667-10.666667 46.933333 2.133333 68.266667 10.666667 87.466666 0 2.133333 2.133333 6.4 2.133333 2.133334l-2.133333 2.133333c-17.066667 21.333333-34.133333 27.733333-34.133333 27.733333-12.8 2.133333-21.333333 12.8-27.733334 27.733334-2.133333 14.933333 4.266667 29.866667 14.933334 34.133333 34.133333 21.333333 93.866667 53.333333 151.466666 53.333333 44.8 0 87.466667-17.066667 123.733334-57.6 57.6-66.133333 46.933333-168.533333 46.933333-174.933333 19.2-4.266667 36.266667-19.2 46.933333-36.266667z m-149.333333-87.466666L748.8 153.6 469.333333 680.533333c-2.133333 2.133333-6.4 6.4-6.4 2.133334l-83.2-49.066667v-8.533333h-2.133333z m6.4 256c-40.533333 46.933333-96 36.266667-138.666667 19.2 6.4-6.4 10.666667-12.8 17.066667-19.2 21.333333-34.133333 10.666667-59.733333 2.133333-74.666667-6.4-10.666667-10.666667-21.333333-6.4-46.933333 6.4-29.866667 46.933333-36.266667 64-40.533334l93.866667 49.066667c0 27.733333-2.133333 78.933333-32 113.066667z" p-id="59920" fill="#ffffff"></path></svg>