<?xml version="1.0" standalone="no"?><!DOCTYPE svg PUBLIC "-//W3C//DTD SVG 1.1//EN" "http://www.w3.org/Graphics/SVG/1.1/DTD/svg11.dtd"><svg t="1533288160324" class="icon" style="" viewBox="0 0 1024 1024" version="1.1" xmlns="http://www.w3.org/2000/svg" p-id="46726" data-spm-anchor-id="a313x.7781069.0.i67" xmlns:xlink="http://www.w3.org/1999/xlink" width="64" height="64"><defs><style type="text/css"></style></defs><path d="M512 0C229.227 0 0 229.227 0 512s229.227 512 512 512 512-229.227 512-512S794.773 0 512 0z m358.613 636.288c-18.453 43.563-44.842 82.688-78.442 116.288-33.6 33.579-72.747 59.968-116.352 78.379-45.163 19.093-93.099 28.757-142.507 28.757-87.339 0-171.904-31.253-238.165-88-11.563-9.899-12.907-27.328-2.987-38.87a27.57 27.57 0 0 1 20.95-9.642 27.72 27.72 0 0 1 17.962 6.635c56.256 48.213 128.064 74.752 202.24 74.752 171.435 0 310.89-139.392 310.89-310.72 0-171.328-139.455-310.72-310.89-310.72-148.779 0-277.483 107.349-305.323 252.01l49.75-43.562a27.663 27.663 0 0 1 18.176-6.827c7.957 0 15.509 3.435 20.757 9.408 10.027 11.435 8.875 28.885-2.581 38.912L209.3 524.864a27.104 27.104 0 0 1-4.16 3.05l-0.064 0.043a2.72 2.72 0 0 0-0.256 0.15c-0.554 0.32-1.13 0.618-1.77 0.938-0.214 0.086-0.406 0.192-0.64 0.299-0.086 0.043-0.15 0.085-0.235 0.128-0.021 0.021-0.043 0.021-0.064 0.021-0.47 0.192-0.96 0.406-1.45 0.576-0.171 0.086-0.342 0.128-0.491 0.192l-0.107 0.022c-0.555 0.192-1.11 0.384-1.664 0.533-0.021 0-0.021 0.021-0.043 0.021-0.106 0.022-0.213 0.064-0.32 0.086-0.661 0.17-1.344 0.32-2.09 0.469-0.086 0.021-0.214 0.021-0.342 0.064-0.725 0.128-1.472 0.235-2.218 0.299-0.043 0-0.086 0-0.107 0.021h-0.021c-0.832 0.085-1.579 0.107-2.326 0.107-0.192 0-0.362-0.022-0.554-0.022l-0.086-0.021c-0.341 0-0.682-0.021-1.024-0.021-0.234-0.022-0.448-0.022-0.704-0.064h-0.085c-0.341-0.022-0.661-0.086-0.981-0.128h-0.107c-0.192-0.022-0.405-0.064-0.576-0.086a32.46 32.46 0 0 1-1.643-0.298c-0.021 0-0.085-0.022-0.106-0.022l-0.235-0.064h-0.021a25.27 25.27 0 0 1-1.472-0.384l-0.15-0.042-0.17-0.043c-0.576-0.192-1.088-0.341-1.6-0.533-0.043-0.022-0.064-0.022-0.086-0.043a27.852 27.852 0 0 1-3.456-1.579l-0.17-0.085c-0.534-0.299-1.046-0.576-1.536-0.896-0.022-0.021-0.064-0.043-0.086-0.064-0.554-0.341-1.045-0.704-1.536-1.045-0.085-0.086-0.192-0.128-0.298-0.235a22.39 22.39 0 0 1-1.046-0.832c-0.192-0.17-0.384-0.32-0.576-0.512-0.234-0.213-0.469-0.448-0.704-0.661l-0.085-0.064-0.555-0.555-0.512-0.512-0.085-0.107a21.937 21.937 0 0 1-0.96-1.088 12.16 12.16 0 0 1-0.661-0.81c-0.15-0.192-0.299-0.406-0.427-0.555-0.299-0.448-0.619-0.875-0.896-1.28a0.664 0.664 0 0 0-0.085-0.128 34.69 34.69 0 0 1-0.982-1.664c-0.021-0.064-0.085-0.128-0.106-0.213a25.04 25.04 0 0 1-0.982-2.027l-56.554-127.232c-2.987-6.741-3.179-14.23-0.534-21.099 2.646-6.869 7.808-12.309 14.55-15.296 3.562-1.578 7.317-2.389 11.178-2.389 10.902 0 20.8 6.443 25.238 16.384l18.24 41.045c4.608-18.794 10.73-37.312 18.304-55.168 18.432-43.562 44.821-82.709 78.442-116.309 33.622-33.579 72.768-59.947 116.352-78.379C435.968 137.685 483.904 128 533.312 128c49.43 0 97.365 9.685 142.507 28.757 43.605 18.432 82.752 44.8 116.352 78.379 33.6 33.6 60.01 72.725 78.442 116.31 19.094 45.12 28.779 93.034 28.779 142.42 0 49.387-9.685 97.302-28.779 142.422z m-204.117-233.28a6.437 6.437 0 0 1 6.443 6.443v53.632c0 3.541-2.88 6.442-6.443 6.442h-100.01v44.502h100.01a6.437 6.437 0 0 1 6.443 6.442v53.632c0 3.542-2.88 6.443-6.443 6.443h-100.01v99.99c0 18.325-14.934 33.237-33.28 33.237-18.347 0-33.26-14.912-33.26-33.238v-99.989h-100.01a6.437 6.437 0 0 1-6.443-6.443V520.47a6.437 6.437 0 0 1 6.443-6.442h100.01v-44.502h-100.01a6.437 6.437 0 0 1-6.443-6.442V409.45c0-3.542 2.88-6.443 6.443-6.443h52.95l-54.273-54.23c-12.97-12.949-12.97-34.069 0-47.018 6.294-6.293 14.635-9.75 23.531-9.75 8.875 0 17.216 3.457 23.51 9.75l87.551 87.51 87.552-87.51c6.294-6.293 14.635-9.75 23.531-9.75 8.875 0 17.237 3.457 23.51 9.75 12.97 12.95 12.97 34.07 0 47.019l-54.294 54.25h52.992z" p-id="46727" fill="#e0620d"></path></svg>