<?xml version="1.0" standalone="no"?><!DOCTYPE svg PUBLIC "-//W3C//DTD SVG 1.1//EN" "http://www.w3.org/Graphics/SVG/1.1/DTD/svg11.dtd"><svg t="1533208468157" class="icon" style="" viewBox="0 0 1024 1024" version="1.1" xmlns="http://www.w3.org/2000/svg" p-id="64159" xmlns:xlink="http://www.w3.org/1999/xlink" width="64" height="64"><defs><style type="text/css"></style></defs><path d="M610.027 618.139c-16.394 6.809-33.339 19.45-43.781 27.462-22.826 17.534-35.637 41.522-35.637 70.635v52.976c0 54.447 17.73 92.867 71.276 92.867 0.018 0 0.018 0 0.035 0.018h93.051c2.138-0.426 3.653-0.763 3.653-0.763v0.763h1.551c14.611 0 26.443 11.897 26.443 26.576 0 14.698-11.831 26.594-26.443 26.594H307.588c-14.594 0-26.443-11.897-26.443-26.594 0-14.679 11.85-26.576 26.443-26.576h1.568v-0.763s0.499 0.337 1.158 0.763h96.561c43.069 0 70.278-44.944 70.278-92.884v-52.976c0-29.113-12.795-53.1-35.637-70.635-10.442-8.014-27.388-20.655-43.781-27.462-59.158-24.538-188.114-75.988-188.114-189.777 0-89.286 54.17-230.839 77.494-287.679 6.182-15.07 20.67-24.803 36.707-24.803h360.121c16.037 0 30.525 9.733 36.707 24.803 23.325 56.842 77.494 198.394 77.494 287.679 0 113.788-128.956 165.239-188.114 189.777z" p-id="64160" fill="#1aaba8"></path></svg>