<?xml version="1.0" standalone="no"?><!DOCTYPE svg PUBLIC "-//W3C//DTD SVG 1.1//EN" "http://www.w3.org/Graphics/SVG/1.1/DTD/svg11.dtd"><svg t="1533206306722" class="icon" style="" viewBox="0 0 1024 1024" version="1.1" xmlns="http://www.w3.org/2000/svg" p-id="33809" xmlns:xlink="http://www.w3.org/1999/xlink" width="64" height="64"><defs><style type="text/css"></style></defs><path d="M722.697 269.059l-224.485 0.159c-9.589 0-17.358 7.849-17.358 17.536l0 491.122c0 9.687 17.358 17.536 17.358 17.536l226.661 0c9.588 0 16.27-17.536 16.27-17.536L741.143 285.508C741.142 275.821 732.286 269.059 722.697 269.059zM550.266 760.32 515.56 760.32l0-35.073 34.706 0L550.266 760.32zM550.266 707.711 515.56 707.711l0-35.09 34.706 0L550.266 707.711zM550.266 655.086 515.56 655.086l0-35.073 34.706 0L550.266 655.086zM550.266 602.458 515.56 602.458l0-35.072 34.706 0L550.266 602.458zM550.266 549.849 515.56 549.849l0-35.092 34.706 0L550.266 549.849zM550.266 497.222 515.56 497.222l0-35.071 34.706 0L550.266 497.222zM550.266 444.615 515.56 444.615l0-35.091 34.706 0L550.266 444.615zM550.266 391.988 515.56 391.988l0-35.071 34.706 0L550.266 391.988zM550.266 339.38 515.56 339.38l0-35.09 34.706 0L550.266 339.38zM602.318 707.711l-34.705 0 0-35.09 34.705 0L602.318 707.711zM602.318 655.086l-34.705 0 0-35.073 34.705 0L602.318 655.086zM602.318 602.458l-34.705 0 0-35.072 34.705 0L602.318 602.458zM602.318 549.849l-34.705 0 0-35.092 34.705 0L602.318 549.849zM602.318 497.222l-34.705 0 0-35.071 34.705 0L602.318 497.222zM602.318 444.615l-34.705 0 0-35.091 34.705 0L602.318 444.615zM602.318 391.988l-34.705 0 0-35.071 34.705 0L602.318 391.988zM602.318 339.38l-34.705 0 0-35.09 34.705 0L602.318 339.38zM654.373 707.711l-34.705 0 0-35.09 34.705 0L654.373 707.711zM654.373 655.086l-34.705 0 0-35.073 34.705 0L654.373 655.086zM654.373 602.458l-34.705 0 0-35.072 34.705 0L654.373 602.458zM654.373 549.849l-34.705 0 0-35.092 34.705 0L654.373 549.849zM654.373 497.222l-34.705 0 0-35.071 34.705 0L654.373 497.222zM654.373 444.615l-34.705 0 0-35.091 34.705 0L654.373 444.615zM654.373 391.988l-34.705 0 0-35.071 34.705 0L654.373 391.988zM654.373 339.38l-34.705 0 0-35.09 34.705 0L654.373 339.38zM706.437 760.32l-34.705 0 0-35.073 34.705 0L706.437 760.32zM706.437 707.711l-34.705 0 0-35.09 34.705 0L706.437 707.711zM706.437 655.086l-34.705 0 0-35.073 34.705 0L706.437 655.086zM706.437 602.458l-34.705 0 0-35.072 34.705 0L706.437 602.458zM706.437 549.849l-34.705 0 0-35.092 34.705 0L706.437 549.849zM706.437 497.222l-34.705 0 0-35.071 34.705 0L706.437 497.222zM706.437 444.615l-34.705 0 0-35.091 34.705 0L706.437 444.615zM706.437 391.988l-34.705 0 0-35.071 34.705 0L706.437 391.988zM706.437 339.38l-34.705 0 0-35.09 34.705 0L706.437 339.38zM446.147 462.151l-173.52 0c-9.578 0-17.348 7.849-17.348 17.536l0 298.189c0 9.687 7.77 17.536 17.348 17.536l173.52 0c9.59 0 17.359-7.85 17.359-17.536L463.506 479.687C463.506 470 455.737 462.151 446.147 462.151zM324.681 760.32l-34.706 0 0-52.609 34.706 0L324.681 760.32zM324.681 690.156l-34.706 0 0-52.607 34.706 0L324.681 690.156zM324.681 620.012l-34.706 0 0-52.627 34.706 0L324.681 620.012zM324.681 549.849l-34.706 0 0-52.627 34.706 0L324.681 549.849zM376.745 690.156 342.04 690.156l0-52.607 34.706 0L376.746 690.156zM376.745 620.012 342.04 620.012l0-52.627 34.706 0L376.746 620.012zM376.745 549.849 342.04 549.849l0-52.627 34.706 0L376.746 549.849zM428.8 760.32l-34.706 0 0-52.609L428.8 707.711 428.8 760.32zM428.8 690.156l-34.706 0 0-52.607L428.8 637.549 428.8 690.156zM428.8 620.012l-34.706 0 0-52.627L428.8 567.385 428.8 620.012zM428.8 549.849l-34.706 0 0-52.627L428.8 497.222 428.8 549.849zM959.482 558.502c0 248.518-201.464 449.981-449.981 449.981S59.519 807.019 59.519 558.502 260.983 108.52 509.501 108.52 959.482 309.984 959.482 558.502z" p-id="33810" fill="#6c4710"></path></svg>