<?xml version="1.0" standalone="no"?><!DOCTYPE svg PUBLIC "-//W3C//DTD SVG 1.1//EN" "http://www.w3.org/Graphics/SVG/1.1/DTD/svg11.dtd"><svg t="1533301761264" class="icon" style="" viewBox="0 0 1024 1024" version="1.1" xmlns="http://www.w3.org/2000/svg" p-id="104601" xmlns:xlink="http://www.w3.org/1999/xlink" width="64" height="64"><defs><style type="text/css"></style></defs><path d="M829 623.396a23 23.034 0 1 0 92 0 23 23.034 0 1 0-92 0z m32.876-460.692L785.412 30.056C768.836 1.314 732.14-8.532 703.444 8.06L435.998 162.704h425.878zM846.5 723.046c-54.954 0-99.5-44.614-99.5-99.648 0-55.04 44.546-99.652 99.5-99.652H1024V282.884c0-33.186-26.864-60.09-60-60.09H60c-33.136 0-60 26.906-60 60.09V963.91C0 997.098 26.864 1024 60 1024h904c33.136 0 60-26.902 60-60.09V723.046H846.5z" fill="#e0620d" p-id="104602"></path></svg>