<?xml version="1.0" standalone="no"?><!DOCTYPE svg PUBLIC "-//W3C//DTD SVG 1.1//EN" "http://www.w3.org/Graphics/SVG/1.1/DTD/svg11.dtd"><svg t="1533287924047" class="icon" style="" viewBox="0 0 1024 1024" version="1.1" xmlns="http://www.w3.org/2000/svg" p-id="32307" xmlns:xlink="http://www.w3.org/1999/xlink" width="64" height="64"><defs><style type="text/css"></style></defs><path d="M 538.436 515.172 c -1.483 0 -2.728 0.499 -3.742 1.493 c -1.012 0.994 -1.519 2.219 -1.519 3.674 c 0 1.456 0.506 2.7 1.519 3.734 c 1.013 1.034 2.259 1.553 3.742 1.553 c 1.483 0 2.727 -0.517 3.74 -1.553 c 1.013 -1.034 1.519 -2.277 1.519 -3.734 c 0 -1.455 -0.505 -2.681 -1.519 -3.674 c -1.012 -0.995 -2.258 -1.493 -3.74 -1.493 Z" p-id="32308" fill="#e0620d"></path><path d="M 766.72 123.774 c -10.495 -11.5879 -22.9579 -20.9215 -37.3916 -28.0161 c -12.4618 -5.15235 -27.7029 -8.21203 -45.7305 -9.18008 c -18.0194 -0.969071 -38.5121 4.66218 -61.4659 16.9112 c -15.0927 7.75359 -36.0715 18.7071 -62.9466 32.8676 c -26.8823 14.1564 -54.094 28.3343 -81.6455 42.5071 c -31.4708 16.7566 -64.9165 34.159 -100.336 52.1907 l 446.545 0 L 766.72 123.774 Z" p-id="32309" fill="#e0620d"></path><path d="M 681.616 656.203 c -12.1282 -9.0317 -20.814 -19.012 -26.0616 -29.9573 c -6.57167 -12.8824 -10.1788 -27.7029 -10.8256 -44.4606 c 0 -24.4632 8.68275 -45.0838 26.0575 -61.8415 c 17.3727 -16.7536 38.5244 -25.1314 63.4573 -25.1314 l 223.269 0 L 957.513 363.418 c 0 -24.4918 -8.68582 -45.2731 -26.0616 -62.3367 c -17.3727 -17.0667 -38.5244 -25.596 -63.4491 -25.596 L 153.928 275.485 c -24.9196 0 -46.0764 8.52926 -63.4521 25.596 C 73.107 318.145 64.4212 338.926 64.4212 363.418 L 64.4212 845.541 c 0 12.2234 2.45286 23.6507 7.36678 34.2951 c 4.91085 10.627 11.6299 19.9678 20.1724 28.012 c 8.54563 8.02579 18.3816 14.3089 29.5203 18.8186 c 11.1479 4.52199 22.9466 6.76917 35.4043 6.76917 l 714.073 0 c 12.4669 -0.016373 23.9433 -2.27993 34.4312 -6.76917 c 10.4961 -4.48106 19.6772 -10.7642 27.5464 -18.8186 c 7.86513 -8.07184 13.9344 -17.4136 18.1882 -28.012 c 4.25491 -10.6281 6.39055 -22.043 6.39055 -34.2951 L 957.515 669.742 L 734.244 669.742 C 711.286 669.742 693.737 665.232 681.616 656.203 Z" p-id="32310" fill="#e0620d"></path><path d="M 739.519 503.466 c -22.9661 0 -42.4498 7.71675 -58.4512 23.1482 c -16.0045 15.4356 -24.0027 34.4302 -24.0027 56.9634 c 0.595564 15.4356 3.91824 29.0875 9.97212 40.9537 c 4.8341 10.0816 12.8343 19.275 24.0057 27.5945 c 11.1643 8.31641 27.3294 12.47 48.4761 12.47 l 218.321 0 l 0 -161.13 L 739.519 503.466 Z M 765.854 613.569 c -8.51288 8.69913 -19.0007 13.0523 -31.4636 13.0523 c -12.47 0 -22.9569 -4.35315 -31.4789 -13.0523 c -8.51698 -8.69401 -12.779 -19.1655 -12.779 -31.4083 c 0 -12.2439 4.26309 -22.5537 12.779 -30.9141 c 8.52209 -8.3686 19.0089 -12.558 31.4789 -12.558 c 12.4628 0 22.9507 4.18839 31.4636 12.558 c 8.52107 8.36041 12.779 18.6702 12.779 30.9141 C 778.634 594.404 774.375 604.875 765.854 613.569 Z" p-id="32311" fill="#e0620d"></path></svg>