<?xml version="1.0" standalone="no"?><!DOCTYPE svg PUBLIC "-//W3C//DTD SVG 1.1//EN" "http://www.w3.org/Graphics/SVG/1.1/DTD/svg11.dtd"><svg t="1533208073644" class="icon" style="" viewBox="0 0 1024 1024" version="1.1" xmlns="http://www.w3.org/2000/svg" p-id="54066" data-spm-anchor-id="a313x.7781069.0.i47" xmlns:xlink="http://www.w3.org/1999/xlink" width="64" height="64"><defs><style type="text/css"></style></defs><path d="M708.9408 179.2l-262.656 0c-4.1472 0-8.0384 2.7136-9.472 6.5792l-131.3536 354.688c-1.152 3.072-0.6912 6.5536 1.2288 9.2928 1.8688 2.688 4.9664 4.3008 8.2688 4.3008l117.1456 0-93.8496 277.248c-1.6128 4.7104 0.3072 9.7536 4.48 12.1088 4.4032 2.5344 9.7024 1.408 12.9792-2.4576l321.3824-393.088c2.7392-3.2512 3.328-7.5776 1.6896-11.1104-1.6128-3.4816-5.3248-5.8624-9.1648-5.8624l-113.4592 0L716.8 195.8144c1.6896-2.3808 2.3552-4.3264 2.3552-6.4512C719.1552 183.7568 714.5728 179.2 708.9408 179.2z" p-id="54067" fill="#e38629"></path><path d="M921.6 0 102.4 0C45.8496 0 0 45.8496 0 102.4l0 819.2c0 56.5504 45.8496 102.4 102.4 102.4l819.2 0c56.5504 0 102.4-45.8496 102.4-102.4L1024 102.4C1024 45.8496 978.1504 0 921.6 0zM758.6304 225.3312l-105.472 154.3936 16.4864 0c23.7568 0 45.5424 13.9008 55.6032 35.456 10.0352 21.6064 6.6048 47.2832-8.7552 65.4336L395.1104 873.7024C383.0528 887.9872 365.9008 896 347.8016 896c-10.7008 0-21.1968-2.7904-30.4128-8.064-25.4464-14.3872-37.1456-45.1584-27.5968-73.0624l70.9376-209.5616-45.7728 0c-19.9936 0-38.784-9.8048-50.2528-26.1888-11.52-16.512-14.2336-37.5808-7.2704-56.3712l131.328-354.6368C397.568 144.128 420.7104 128 446.3104 128l262.656 0c33.8432 0 61.3888 27.52 61.3888 61.3376C770.3552 202.368 766.3104 214.8096 758.6304 225.3312z" p-id="54068" data-spm-anchor-id="a313x.7781069.0.i48" class="" fill="#e38629"></path></svg>