<?xml version="1.0" standalone="no"?><!DOCTYPE svg PUBLIC "-//W3C//DTD SVG 1.1//EN" "http://www.w3.org/Graphics/SVG/1.1/DTD/svg11.dtd"><svg t="1533365823192" class="icon" style="" viewBox="0 0 1024 1024" version="1.1" xmlns="http://www.w3.org/2000/svg" p-id="13541" xmlns:xlink="http://www.w3.org/1999/xlink" width="64" height="64"><defs><style type="text/css"></style></defs><path d="M512 1006.9l-22.3-21.7c-3.7-3.6-91.4-89.2-180.5-200.6-122.6-153.3-184.8-276.1-184.8-365 0-52.3 10.3-103.1 30.5-150.9 19.5-46.2 47.5-87.6 83.1-123.2 35.6-35.6 77-63.5 123.2-83.1C408.9 42.3 459.7 32 512 32s103.1 10.3 150.9 30.5c46.2 19.5 87.6 47.5 123.2 83.1 35.6 35.6 63.5 77 83.1 123.2 20.2 47.8 30.5 98.6 30.5 150.9 0 88.9-62.2 211.7-184.8 365C625.7 896 538 981.6 534.3 985.2l-22.3 21.7zM512 96c-86.4 0-167.7 33.7-228.8 94.8-61.1 61.1-94.8 142.4-94.8 228.8 0 39.2 17.3 90.3 51.4 151.9 28.6 51.5 68.6 109.6 119 172.6 60.4 75.5 121.5 140.2 153.2 172.8 31.8-32.5 92.8-97.2 153.2-172.8 50.4-63 90.4-121.1 119-172.6 34.1-61.5 51.4-112.6 51.4-151.9 0-86.4-33.7-167.7-94.8-228.8C679.7 129.7 598.4 96 512 96z m0 512.6c-104.2 0-189-84.8-189-189s84.8-189 189-189 189 84.8 189 189c0 104.3-84.8 189-189 189z m0-314c-68.9 0-125 56.1-125 125s56.1 125 125 125 125-56.1 125-125-56.1-125-125-125z" p-id="13542" fill="#000000" data-spm-anchor-id="a313x.7781069.0.i33" class="selected"></path></svg>