<?xml version="1.0" standalone="no"?><!DOCTYPE svg PUBLIC "-//W3C//DTD SVG 1.1//EN" "http://www.w3.org/Graphics/SVG/1.1/DTD/svg11.dtd"><svg t="1533365922731" class="icon" style="" viewBox="0 0 1047 1024" version="1.1" xmlns="http://www.w3.org/2000/svg" p-id="15101" xmlns:xlink="http://www.w3.org/1999/xlink" width="65.4375" height="64"><defs><style type="text/css"></style></defs><path d="M1002.411279 576.426247c-7.91881 0-15.274566-3.394486-20.929972-9.617918L557.223983 75.236766c-9.619161-11.317025-22.062296-16.973674-35.0747-16.973674l0 0c-13.007432 0-25.45181 6.224675-35.069728 16.973674L63.953313 566.808329c-10.185944 11.88008-28.28697 13.011161-39.599024 2.262162-11.881323-10.74527-12.444378-28.845053-2.263405-41.294403L444.654072 36.768823c20.363188-23.756431 48.082132-36.768836 77.495212-36.768836l0 0c29.418051 0 57.136995 13.012404 76.935886 36.768836L1023.342494 528.344115c10.182216 11.881323 9.051134 30.544161-2.262162 41.294403C1015.423683 573.599788 1008.635954 576.426247 1002.411279 576.426247L1002.411279 576.426247 1002.411279 576.426247zM1002.411279 576.426247" p-id="15102" fill="#000000"></path><path d="M917.275677 646.128186c0.003729-15.3479-12.371044-27.850696-27.746289-27.968776-0.073334-0.001243-0.145425-0.001243-0.220001-0.001243-15.344171 0-27.841996 12.379744-27.960076 27.751261l-0.080792 10.552614-0.114351 0.02113-0.012429 16.459094-0.188928 237.907367c0 31.107215-25.450567 56.562754-56.563997 56.562754l-112.57364 0L691.815174 741.707023c0-62.220646-50.344294-112.569912-112.568669-112.569912l-113.132966 0c-62.224374 0-112.57364 50.349266-112.57364 112.569912l0 225.705364-113.132966 0c-31.112187 0-56.568969-25.455539-56.568969-56.562754l-0.81413-264.103702-0.103165 0 0 0c0-15.446093-12.52144-27.96629-27.96629-27.96629s-27.96629 12.520197-27.96629 27.96629l0 157.02637c0 1.341139 0.100679 2.657419 0.282149 3.947597l0 103.129735c0 62.219403 50.344294 112.568669 112.568669 112.568669l112.569912 0c0 0 15.177616 0 24.514629 0 8.002088 0 16.506326-2.33301 22.534615-7.809431 3.947597-3.587143 6.847391-8.268078 8.286723-13.408904 1.030402-3.681607 1.23176-7.457677 1.23176-11.261093l0-24.089541L408.976543 741.143968c0-31.11343 25.456782-56.568969 56.568969-56.568969l112.568669 0c31.11343 0 56.568969 25.455539 56.568969 56.568969l0 226.268418c0 0 0 12.755114 0 21.35133 0 11.411489 2.925895 24.60785 13.586645 30.660998 7.944912 4.510652 15.485867 4.54794 24.334401 4.571556 5.10478 0.013672 131.216591-0.014915 131.216591-0.014915 62.225617 0 112.569912-50.344294 112.569912-112.568669L917.294321 646.124458 917.275677 646.128186z" p-id="15103" fill="#000000"></path></svg>