<?xml version="1.0" standalone="no"?><!DOCTYPE svg PUBLIC "-//W3C//DTD SVG 1.1//EN" "http://www.w3.org/Graphics/SVG/1.1/DTD/svg11.dtd"><svg t="1533480907124" class="icon" style="" viewBox="0 0 1298 1024" version="1.1" xmlns="http://www.w3.org/2000/svg" p-id="11827" xmlns:xlink="http://www.w3.org/1999/xlink" width="81.125" height="64"><defs><style type="text/css"></style></defs><path d="M426.511912 554.396537C427.732655 553.843747 428.93976 553.223048 430.125041 552.535796L710.174644 329.237427C712.571122 327.849342 714.772553 326.253451 716.768026 324.486424L937.331248 704.857102C947.63733 722.712061 970.423644 728.852505 988.504296 718.411985 1006.460826 708.04345 1012.724128 685.273147 1002.353944 667.308173L661.79226 79.99191C652.866507 64.530111 644.359489 61.342406 620.166932 61.342406L438.986689 61.342406C416.245386 61.342406 397.80874 79.432335 397.80874 102.099415 397.80874 124.608942 416.144453 142.856424 438.986689 142.856424L605.99539 142.856424C607.77945 142.856424 611.260275 142.530451 611.260275 142.530451L677.015416 255.929685C674.337963 257.252577 673.242703 258.075648 670.271998 259.903788L390.223759 483.20216C389.376741 483.692472 388.552909 484.209948 387.756356 484.750513L304.974904 335.987704 328.927403 335.987704C351.668706 335.987704 370.105352 317.897776 370.105352 295.230696 370.105352 272.721169 351.769639 254.473687 328.927403 254.473687L161.918702 254.473687C139.177399 254.473687 120.740754 272.563616 120.740754 295.230696 120.740754 317.740223 139.076466 335.987704 161.918702 335.987704L221.893381 335.987704 442.242461 731.962794C452.013869 750.278185 473.616265 756.577539 490.757149 745.866736 507.779368 735.230635 513.719413 711.873587 503.887991 693.444107L426.509184 554.393821 426.511912 554.396537ZM911.030013 338.51804C920.493165 337.675953 930.076344 337.24676 939.760463 337.24676 1115.734467 337.24676 1258.389668 479.300037 1258.389668 654.531541 1258.389668 829.763044 1115.734467 971.816321 939.760463 971.816321 763.786452 971.816321 621.131252 829.763044 621.131252 654.531541 621.131252 578.761372 647.802124 509.195482 692.30677 454.633681L734.704101 539.108584C715.318137 573.184583 704.25233 612.571163 704.25233 654.532899 704.25233 784.052663 809.693245 889.048681 939.761821 889.048681 1069.830403 889.048681 1175.271315 784.051304 1175.271315 654.532899 1175.271315 529.138003 1076.440153 426.730723 952.112483 420.334936L911.032736 338.519398 911.030013 338.51804ZM475.808149 885.699348C430.080031 938.438439 362.446717 971.819038 286.984274 971.819038 149.263882 971.819038 37.62104 860.647262 37.62104 723.507969 37.62104 617.383283 104.476897 526.81004 198.536933 491.269896L248.549248 562.414019C175.266413 579.686309 120.742118 645.256361 120.742118 723.507969 120.742118 814.932806 195.172043 889.048681 286.984274 889.048681 345.004398 889.048681 396.081967 859.452042 425.821748 814.590538L475.808149 885.697991 475.808149 885.699348Z" p-id="11828" fill="#ffffff"></path></svg>