<?xml version="1.0" standalone="no"?><!DOCTYPE svg PUBLIC "-//W3C//DTD SVG 1.1//EN" "http://www.w3.org/Graphics/SVG/1.1/DTD/svg11.dtd"><svg t="1533299591325" class="icon" style="" viewBox="0 0 1024 1024" version="1.1" xmlns="http://www.w3.org/2000/svg" p-id="91414" xmlns:xlink="http://www.w3.org/1999/xlink" width="64" height="64"><defs><style type="text/css"></style></defs><path d="M510.464 64.512c254.464 0 460.8 201.216 460.8 449.536s-206.336 449.536-460.8 449.536-460.8-201.216-460.8-449.536S256 64.512 510.464 64.512z" fill="#A0A0A0" p-id="91415"></path><path d="M287.744 474.112s9.216-113.664 86.528-166.4 169.984-2.048 230.912-27.648 57.856-55.296 57.856-55.296 74.752 96.256 57.856 138.752-57.856 83.456-57.856 83.456v27.648l-375.296-0.512z" fill="#FFFFFF" p-id="91416"></path><path d="M506.368 337.408c99.328 0 179.712 77.824 179.712 173.056S605.696 683.52 506.368 683.52s-179.712-77.824-179.712-173.056 80.384-173.056 179.712-173.056z m-218.112 570.88c66.048 35.328 141.824 55.808 222.208 55.808 87.04 0 168.448-23.552 238.08-64.512-7.68-97.792-107.52-175.104-229.888-175.104-125.952 0-228.352 81.92-230.4 183.808z" fill="#FFFFFF" p-id="91417"></path></svg>